<svg xmlns="http://www.w3.org/2000/svg" xmlns:xlink="http://www.w3.org/1999/xlink" fill="none" version="1.1" width="80" height="80" viewBox="0 0 80 80"><defs><clipPath id="master_svg0_91_9672"><rect x="17" y="18" width="48" height="48" rx="0"/></clipPath></defs><g><g><path d="M61.5372,19.85L70.9725,19.85C74.3014,19.85,77,22.46914,77,25.7L77,60.15C77,63.3809,74.3014,66,70.9725,66L10.027519999999999,66C6.69861,66,4,63.3809,4,60.15L4,25.7C4,22.46914,6.69861,19.85,10.027519999999999,19.85L20.1326,19.85C21.2095,19.85,22.0826,18.97696,22.0826,17.9C22.0826,15.74609,23.8816,14,26.1009,14L55.5688,14C57.7881,14,59.5872,15.74609,59.5872,17.9C59.5872,18.97696,60.4602,19.85,61.5372,19.85ZM61.5372,22.85Q59.4868,22.85,58.037,21.40018Q56.5872,19.95036,56.5872,17.9Q56.5872,17.55355,56.3208,17.29507Q56.0168,17,55.5688,17L26.1009,17Q25.6529,17,25.3489,17.29507Q25.0826,17.55355,25.0826,17.9Q25.0826,19.95036,23.6327,21.40018Q22.1829,22.85,20.1326,22.85L10.027519999999999,22.85Q8.7473,22.85,7.8548,23.71621Q7,24.5458,7,25.7L7,60.15Q7,61.3042,7.8548,62.1338Q8.7473,63,10.027519999999999,63L70.9725,63Q72.2527,63,73.1452,62.1338Q74,61.3042,74,60.15L74,25.7Q74,24.5458,73.1452,23.71621Q72.2527,22.85,70.9725,22.85L61.5372,22.85Z" fill-rule="evenodd" fill="#84807F" fill-opacity="1"/></g><g transform="matrix(1,-2.2348341843780872e-8,2.2348341843780872e-8,1,-4.022701531880557e-7,3.7992181134427483e-7)" clip-path="url(#master_svg0_91_9672)"><g transform="matrix(0.5988540053367615,0.800858199596405,-0.800858199596405,0.5988540649414062,32.71022777541657,-27.303543825953966)"><path d="M47.12692328125,31.9493C47.00552328125,31.9493,46.88411328125,31.9351,46.76270328125,31.8997C46.04140328125,31.7016,45.62004328125,30.9619,45.82000328125,30.247C47.67683328125,23.6255,53.81866328125,19,60.760263281250005,19C66.44146328125001,19,71.59056328125,22.10019,74.28656328125,26.86371L75.27926328125,24.06788C75.52916328124999,23.36716,76.30046328125,23.00264,77.00746328125,23.24683C77.71456328125001,23.49456,78.08236328125,24.25899,77.83596328125,24.95972L75.66846328125,31.0539C75.47206328125,31.606,74.94356328125,31.9705,74.34366328125,31.9493C73.75096328125,31.9281,73.24386328125,31.5317,73.08676328125,30.965400000000002C71.55486328125,25.50119,66.48426328125001,21.68258,60.760263281250005,21.68258C55.03266328125,21.68258,49.96572328125,25.50119,48.43384328125,30.965400000000002C48.26601328125,31.560000000000002,47.71968328125,31.9493,47.12692328125,31.9493ZM60.760263281250005,49.7294C55.07196328125,49.7294,49.91930328125,46.6221,47.22333328125,41.8515L46.23779328125,44.5978C45.98783328125,45.295,45.21297328125,45.6595,44.50951928125,45.411699999999996C43.80606828125,45.164,43.43827528125,44.396,43.68823188125,43.698899999999995L45.85571328125,37.6719C46.05211328125,37.1198,46.58416328125,36.7588,47.18049328125,36.780100000000004C47.76967328125,36.8013,48.28030328125,37.1977,48.43741328125,37.7639C49.962153281249996,43.2282,55.03266328125,47.046800000000005,60.760263281250005,47.046800000000005C66.48786328125,47.046800000000005,71.55486328125,43.2282,73.08676328125,37.7639C73.28676328125,37.049,74.03306328125001,36.6314,74.75436328125,36.8296C75.47566328125001,37.0278,75.89696328125001,37.767399999999995,75.69706328125,38.482299999999995C73.84016328125,45.1038,67.69836328125,49.7294,60.760263281250005,49.7294Z" fill="#84807F" fill-opacity="1"/></g></g></g></svg>