<svg xmlns="http://www.w3.org/2000/svg" xmlns:xlink="http://www.w3.org/1999/xlink" fill="none" version="1.1" width="237" height="59" viewBox="0 0 237 59"><g transform="matrix(0,-1,1,0,-59,59)"><g transform="matrix(0,1,-1,0,168,86)"><path d="M48.19336,140.3088L51.2745,142.7515L49.79309,144.0277L46.76404,141.5952L48.19336,140.3088ZM51.3519,136.04309L51.3519,136.58716Q51.3519,137.8843,51.0024,138.9132Q50.65308,139.942,50.00647,140.6663Q49.359989999999996,141.3904,48.4751,141.7733Q47.59021,142.1562,46.514160000000004,142.1562Q45.442750000000004,142.1562,44.5553,141.7733Q43.66785,141.3904,43.01746,140.6663Q42.36719,139.942,42.0127,138.9132Q41.658203,137.8843,41.658203,136.58716L41.658203,136.04309Q41.658203,134.74597,42.01135,133.71582Q42.36462,132.68555,43.00842,131.96008Q43.65222,131.23462,44.53967,130.85168Q45.42712,130.46875,46.49854,130.46875Q47.57458,130.46875,48.46338,130.85168Q49.35217,131.23462,49.99866,131.96008Q50.64526,132.68555,50.99854,133.71582Q51.3519,134.74597,51.3519,136.04309ZM48.980959999999996,136.58716L48.980959999999996,136.02747Q48.980959999999996,135.1283,48.81628,134.4397Q48.65161,133.7511,48.33252,133.28345Q48.01355,132.81567,47.55176,132.57666Q47.08997,132.33765,46.49854,132.33765Q45.90381,132.33765,45.44592,132.57666Q44.98804,132.81567,44.67175,133.28345Q44.35547,133.7511,44.19226,134.4397Q44.02917,135.1283,44.02917,136.02747L44.02917,136.58716Q44.02917,137.4835,44.19226,138.1735Q44.35547,138.8633,44.67566,139.3376Q44.99585,139.8119,45.45764,140.0536Q45.91943,140.2952,46.514160000000004,140.2952Q47.10559,140.2952,47.5647,140.0536Q48.02393,139.8119,48.33899,139.3376Q48.65417,138.8633,48.8175,138.1735Q48.980959999999996,137.4835,48.980959999999996,136.58716ZM60.124700000000004,130.625L62.4664,130.625L62.4664,138.1404Q62.4664,139.4534,61.9067,140.35Q61.347,141.2465,60.3658,141.7014Q59.384699999999995,142.1562,58.1137,142.1562Q56.8358,142.1562,55.849199999999996,141.7014Q54.862700000000004,141.2465,54.3039,140.35Q53.7451,139.4534,53.7451,138.1404L53.7451,130.625L56.0894,130.625L56.0894,138.1404Q56.0894,138.9039,56.3328,139.3894Q56.5764,139.8749,57.0312,140.1033Q57.486000000000004,140.3315,58.1137,140.3315Q58.749300000000005,140.3315,59.198899999999995,140.1033Q59.6485,139.8749,59.8865,139.3894Q60.124700000000004,138.9039,60.124700000000004,138.1404L60.124700000000004,130.625ZM69.6433,132.56982L66.5501,142L64.0581,142L68.2882,130.625L69.8733,130.625L69.6433,132.56982ZM72.2173,142L69.11619999999999,132.56982L68.8651,130.625L70.4661,130.625L74.7171,142L72.2173,142ZM72.0802,137.7679L72.0802,139.6005L66.0655,139.6005L66.0655,137.7679L72.0802,137.7679ZM83.8862,140.1753L83.8862,142L78.1563,142L78.1563,140.1753L83.8862,140.1753ZM78.91380000000001,130.625L78.91380000000001,142L76.56960000000001,142L76.56960000000001,130.625L78.91380000000001,130.625ZM88.52170000000001,130.625L88.52170000000001,142L86.1828,142L86.1828,130.625L88.52170000000001,130.625ZM96.3661,130.625L96.3661,142L94.02940000000001,142L94.02940000000001,130.625L96.3661,130.625ZM99.8635,130.625L99.8635,132.45752L90.5874,132.45752L90.5874,130.625L99.8635,130.625ZM103.68430000000001,130.625L106.0551,135.81189L108.4337,130.625L110.9863,130.625L107.2445,137.8612L107.2445,142L104.8685,142L104.8685,137.8612L101.12129999999999,130.625L103.68430000000001,130.625ZM122.029,137.9467L119.1329,137.9467L119.1329,136.11658L122.029,136.11658Q122.7054,136.11658,123.1252,135.89368Q123.545,135.67065,123.7407,135.27393Q123.9364,134.87708,123.9364,134.37402Q123.9364,133.86755,123.7407,133.4314Q123.545,132.99512,123.1252,132.72632Q122.7054,132.45752,122.029,132.45752L119.945,132.45752L119.945,142L117.6008,142L117.6008,130.625L122.029,130.625Q123.3711,130.625,124.3279,131.10742Q125.2846,131.58972,125.7932,132.43311Q126.3017,133.27649,126.3017,134.3584Q126.3017,135.45752,125.7932,136.2627Q125.2846,137.0679,124.3279,137.5073Q123.3711,137.9467,122.029,137.9467ZM128.7133,130.625L132.9606,130.625Q134.2631,130.625,135.2054,131.01562Q136.1476,131.40625,136.6548,132.17065Q137.162,132.93494,137.162,134.05493Q137.162,134.96851,136.8536,135.62097Q136.5451,136.27344,135.987,136.70679Q135.429,137.1401,134.6774,137.39600000000002L133.9327,137.793L130.24540000000002,137.793L130.2298,135.96289L132.9758,135.96289Q133.5923,135.96289,133.9991,135.7439Q134.4058,135.5249,134.6131,135.13318Q134.8204,134.74146,134.8204,134.22437Q134.8204,133.6792,134.6154,133.28235Q134.4106,132.8855,133.9974,132.67151Q133.58429999999998,132.45752,132.9606,132.45752L131.0575,132.45752L131.0575,142L128.7133,142L128.7133,130.625ZM135.0759,142L132.47969999999998,136.92847L134.95510000000002,136.91528L137.5851,141.8904L137.5851,142L135.0759,142ZM149.10899999999998,136.04309L149.10899999999998,136.58716Q149.10899999999998,137.8843,148.75900000000001,138.9132Q148.41,139.942,147.76600000000002,140.6663Q147.122,141.3904,146.237,141.7733Q145.352,142.1562,144.276,142.1562Q143.20499999999998,142.1562,142.317,141.7733Q141.43,141.3904,140.77949999999998,140.6663Q140.1293,139.942,139.7748,138.9132Q139.4203,137.8843,139.4203,136.58716L139.4203,136.04309Q139.4203,134.74597,139.77339999999998,133.71582Q140.1267,132.68555,140.7705,131.96008Q141.414,131.23462,142.30200000000002,130.85168Q143.189,130.46875,144.261,130.46875Q145.337,130.46875,146.224,130.85168Q147.112,131.23462,147.757,131.96008Q148.402,132.68555,148.755,133.71582Q149.10899999999998,134.74597,149.10899999999998,136.04309ZM146.743,136.58716L146.743,136.02747Q146.743,135.1283,146.578,134.4397Q146.414,133.7511,146.095,133.28345Q145.776,132.81567,145.313,132.57666Q144.849,132.33765,144.261,132.33765Q143.663,132.33765,143.20499999999998,132.57666Q142.748,132.81567,142.433,133.28345Q142.118,133.7511,141.954,134.4397Q141.791,135.1283,141.791,136.02747L141.791,136.58716Q141.791,137.4835,141.954,138.1735Q142.118,138.8633,142.438,139.3376Q142.75799999999998,139.8119,143.21800000000002,140.0536Q143.679,140.2952,144.276,140.2952Q144.868,140.2952,145.327,140.0536Q145.786,139.8119,146.101,139.3376Q146.416,138.8633,146.57999999999998,138.1735Q146.743,137.4835,146.743,136.58716ZM155.091,142L152.615,142L152.631,140.1753L155.091,140.1753Q156.013,140.1753,156.643,139.7562Q157.273,139.3372,157.598,138.5331Q157.924,137.72899999999998,157.924,136.5874L157.924,136.02979Q157.924,135.15906,157.74,134.49268Q157.55599999999998,133.82617,157.19799999999998,133.37292Q156.84,132.91968,156.315,132.6886Q155.789,132.45752,155.11,132.45752L152.56799999999998,132.45752L152.56799999999998,130.625L155.11,130.625Q156.253,130.625,157.204,131.01196Q158.155,131.39893,158.85,132.11938Q159.54399999999998,132.83972,159.922,133.83337Q160.3,134.8269,160.3,136.04541L160.3,136.5874Q160.3,137.8007,159.922,138.7969Q159.54399999999998,139.7931,158.85,140.5096Q158.156,141.2261,157.201,141.613Q156.247,142,155.091,142ZM153.939,130.625L153.939,142L151.595,142L151.595,130.625L153.939,130.625ZM169.073,130.625L171.415,130.625L171.415,138.1404Q171.415,139.4534,170.855,140.35Q170.295,141.2465,169.314,141.7014Q168.333,142.1562,167.062,142.1562Q165.784,142.1562,164.798,141.7014Q163.811,141.2465,163.252,140.35Q162.69400000000002,139.4534,162.69400000000002,138.1404L162.69400000000002,130.625L165.038,130.625L165.038,138.1404Q165.038,138.9039,165.281,139.3894Q165.525,139.8749,165.98000000000002,140.1033Q166.434,140.3315,167.062,140.3315Q167.69799999999998,140.3315,168.147,140.1033Q168.59699999999998,139.8749,168.83499999999998,139.3894Q169.073,138.9039,169.073,138.1404L169.073,130.625ZM180.737,138.224L183.073,138.224Q182.999,139.3762,182.44,140.2649Q181.882,141.1534,180.886,141.6549Q179.89,142.1562,178.496,142.1562Q177.401,142.1562,176.532,141.776Q175.662,141.3956,175.052,140.6858Q174.443,139.9758,174.121,138.9688Q173.799,137.9617,173.799,136.70813L173.799,135.92468Q173.799,134.67114,174.132,133.6615Q174.464,132.65173,175.083,131.93787Q175.702,131.224,176.572,130.84375Q177.442,130.4635,178.513,130.4635Q179.934,130.4635,180.915,130.97961Q181.895,131.49573,182.436,132.39893Q182.977,133.302,183.084,134.46399L180.748,134.46399Q180.702,133.77295,180.468,133.29407Q180.235,132.81519,179.762,132.56616Q179.29,132.31714,178.513,132.31714Q177.924,132.31714,177.485,132.53748Q177.046,132.75769,176.752,133.20422Q176.458,133.65076,176.313,134.32678Q176.168,135.00281,176.168,135.90906L176.168,136.70813Q176.168,137.5917,176.298,138.2626Q176.429,138.9333,176.709,139.3876Q176.989,139.8417,177.43,140.0734Q177.871,140.3051,178.496,140.3051Q179.23,140.3051,179.705,140.0719Q180.18,139.83859999999999,180.433,139.3768Q180.686,138.915,180.737,138.224ZM190.269,130.625L190.269,142L187.933,142L187.933,130.625L190.269,130.625ZM193.767,130.625L193.767,132.45752L184.491,132.45752L184.491,130.625L193.767,130.625ZM201.696,139.0244Q201.696,138.7159,201.604,138.4709Q201.512,138.2258,201.272,138.0182Q201.032,137.8105,200.595,137.6078Q200.157,137.405,199.464,137.1865Q198.684,136.93652,197.993,136.62268Q197.303,136.30884,196.777,135.89185Q196.25,135.47485,195.95,134.91956Q195.649,134.36414,195.649,133.63135Q195.649,132.91956,195.96,132.33862Q196.27,131.75757,196.835,131.3396Q197.4,130.92163,198.169,130.69519Q198.938,130.46875,199.861,130.46875Q201.121,130.46875,202.058,130.92004Q202.995,131.37122,203.514,132.16174Q204.033,132.95215,204.033,133.96973L201.702,133.96973Q201.702,133.47205,201.494,133.08984Q201.287,132.70752,200.87,132.48853Q200.453,132.26953,199.818,132.26953Q199.209,132.26953,198.803,132.45349Q198.396,132.63745,198.192,132.94836Q197.988,133.25916,197.988,133.64221Q197.988,133.93274,198.135,134.16748Q198.282,134.40222,198.57,134.60461Q198.857,134.80688,199.281,134.98608Q199.706,135.16528,200.261,135.33411Q201.187,135.61816,201.893,135.96741Q202.599,136.31653,203.077,136.75562Q203.555,137.1947,203.799,137.7512Q204.043,138.3077,204.043,139.0088Q204.043,139.7517,203.751,140.3354Q203.459,140.91910000000001,202.914,141.3254Q202.37,141.7318,201.61,141.9441Q200.851,142.1562,199.915,142.1562Q199.068,142.1562,198.248,141.9349Q197.428,141.7135,196.762,141.2574Q196.096,140.8014,195.698,140.0986Q195.301,139.3959,195.301,138.4385L197.648,138.4385Q197.648,138.96620000000001,197.811,139.3339Q197.974,139.7015,198.276,139.9301Q198.578,140.1584,198.994,140.2609Q199.411,140.3633,199.915,140.3633Q200.524,140.3633,200.917,140.1896Q201.311,140.0157,201.503,139.7128Q201.696,139.4097,201.696,139.0244Z" fill="#BD9E7F" fill-opacity="1"/></g><g transform="matrix(0,1,-1,0,171,135)"><path d="M20.66895,162.76709L21.94092,158.7168L22.35596,158.7168L22.11182,159.80566L20.77881,164L20.36377,164L20.66895,162.76709ZM19.34814,158.7168L20.46631,162.79149999999998L20.70312,164L20.27832,164L18.745117,158.7168L19.34814,158.7168ZM23.94043,162.77441L25.0293,158.7168L25.63232,158.7168L24.09668,164L23.67432,164L23.94043,162.77441ZM22.43896,158.7168L23.69385,162.73047L24.01123,164L23.59863,164L22.23633,159.80078L22.00439,158.7168L22.43896,158.7168ZM28.212899999999998,162.76709L29.4849,158.7168L29.899900000000002,158.7168L29.6558,159.80566L28.3228,164L27.90771,164L28.212899999999998,162.76709ZM26.89209,158.7168L28.0103,162.79149999999998L28.2471,164L27.82227,164L26.28906,158.7168L26.89209,158.7168ZM31.4844,162.77441L32.5732,158.7168L33.1763,158.7168L31.6406,164L31.2183,164L31.4844,162.77441ZM29.9829,158.7168L31.2378,162.73047L31.5552,164L31.1426,164L29.7803,159.80078L29.548299999999998,158.7168L29.9829,158.7168ZM35.7568,162.76709L37.028800000000004,158.7168L37.443799999999996,158.7168L37.1997,159.80566L35.8667,164L35.4517,164L35.7568,162.76709ZM34.436,158.7168L35.5542,162.79149999999998L35.791,164L35.3662,164L33.833,158.7168L34.436,158.7168ZM39.0283,162.77441L40.1172,158.7168L40.7202,158.7168L39.1846,164L38.7622,164L39.0283,162.77441ZM37.5269,158.7168L38.7817,162.73047L39.0991,164L38.686499999999995,164L37.324200000000005,159.80078L37.0923,158.7168L37.5269,158.7168ZM41.7725,163.5215Q41.7725,163.292,41.9165,163.1333Q42.060500000000005,162.97461,42.334,162.97461Q42.6074,162.97461,42.7515,163.1333Q42.8955,163.292,42.8955,163.5215Q42.8955,163.7461,42.7515,163.9023Q42.6074,164.0586,42.334,164.0586Q42.060500000000005,164.0586,41.9165,163.9023Q41.7725,163.7461,41.7725,163.5215ZM45.6569,159.81291L45.6569,164L44.2491,164L44.2491,158.7168L45.5717,158.7168L45.6569,159.81291ZM45.4614,161.1714L45.0713,161.17331000000001Q45.072900000000004,160.6214,45.206199999999995,160.15501Q45.3397,159.68863,45.601600000000005,159.34355Q45.863600000000005,158.9984,46.2491,158.80881Q46.6346,158.61914,47.141999999999996,158.61914Q47.4966,158.61914,47.7892,158.72412Q48.081900000000005,158.8291,48.294799999999995,159.05211Q48.5078,159.27504,48.6231,159.62828Q48.738600000000005,159.98145,48.738600000000005,160.47621L48.738600000000005,164L47.332300000000004,164L47.332300000000004,160.63261Q47.332300000000004,160.27052,47.2362,160.07445Q47.14,159.87837,46.962199999999996,159.8017Q46.784400000000005,159.72495,46.5353,159.72495Q46.2606,159.72495,46.0582,159.83679Q45.8558,159.94856,45.7228,160.14632Q45.5898,160.34407,45.5256,160.60599Q45.4614,160.8679,45.4614,161.1714ZM48.609700000000004,161.01088L48.1035,161.07733Q48.105000000000004,160.55998,48.234300000000005,160.11328Q48.3635,159.66658,48.6197,159.33096Q48.8759,158.99527,49.2566,158.80721Q49.637299999999996,158.61914,50.1369,158.61914Q50.5187,158.61914,50.8301,158.72816Q51.1415,158.83711,51.3636,159.07401Q51.5857,159.3109,51.7062,159.69374Q51.8266,160.07658,51.8266,160.62758L51.8266,164L50.4156,164L50.4156,160.62445Q50.4156,160.25946,50.3194,160.06583Q50.2232,159.87219,50.0462,159.79857Q49.8692,159.72495,49.6251,159.72495Q49.3703,159.72495,49.180499999999995,159.8242Q48.990700000000004,159.92339,48.8625,160.09833Q48.7344,160.27327,48.672,160.50604Q48.609700000000004,160.73882,48.609700000000004,161.01088ZM55.7682,162.80882L55.7682,160.45638Q55.7682,160.20338,55.685,160.01944Q55.602,159.83549,55.429,159.73334Q55.256,159.63118,54.9825,159.63118Q54.7466,159.63118,54.5746,159.71198Q54.4026,159.79277,54.3098,159.94025Q54.2171,160.08765,54.2171,160.29082L52.8109,160.29082Q52.8109,159.95139,52.9689,159.64827Q53.127,159.34508,53.4227,159.11307Q53.7185,158.88106,54.1331,158.75014Q54.5478,158.61914,55.0594,158.61914Q55.6719,158.61914,56.1502,158.82437Q56.6285,159.0296,56.9048,159.43922Q57.1811,159.84885,57.1811,160.46614L57.1811,162.7252Q57.1811,163.1609,57.2357,163.4373Q57.2904,163.7137,57.3931,163.9186L57.3931,164L55.971,164Q55.8695,163.7842,55.8189,163.4601Q55.7682,163.136,55.7682,162.80882ZM55.9543,160.78032L55.9641,161.58049L55.1767,161.58049Q54.8968,161.58049,54.6916,161.6432Q54.4865,161.70592,54.3559,161.81975Q54.2252,161.9335,54.1624,162.08517Q54.0997,162.23685,54.0997,162.41812Q54.0997,162.59764,54.1839,162.74153Q54.2681,162.88542,54.424,162.96706Q54.5799,163.0486,54.7896,163.0486Q55.1086,163.0486,55.3416,162.92082Q55.5746,162.79295,55.7047,162.60855Q55.8349,162.42407,55.8396,162.2576L56.2088,162.85429Q56.1316,163.0528,55.9984,163.2687Q55.8652,163.4846,55.6601,163.672Q55.4549,163.8594,55.1653,163.9786Q54.8756,164.0977,54.4823,164.0977Q53.9783,164.0977,53.5722,163.8943Q53.166,163.6909,52.929,163.3336Q52.692,162.97636,52.692,162.51707Q52.692,162.10219,52.8464,161.77916Q53.0008,161.45605,53.3067,161.23381Q53.6126,161.01157,54.0719,160.89598Q54.5312,160.78032,55.136,160.78032L55.9543,160.78032ZM61.3876,162.84888L61.3876,156.5L62.802,156.5L62.802,164L61.5285,164L61.3876,162.84888ZM58.0447,161.42027L58.0447,161.31773Q58.0447,160.71562,58.182,160.22002Q58.3193,159.72441,58.5836,159.36629Q58.848,159.00816,59.2329,158.81369Q59.6178,158.61914,60.1113,158.61914Q60.5762,158.61914,60.925,158.81567Q61.2737,159.01213,61.5201,159.36987Q61.7664,159.72754,61.9178,160.21292Q62.0692,160.6983,62.141,161.27432L62.141,161.50191Q62.0707,162.05313,61.9186,162.52531Q61.7664,162.99742,61.5201,163.351Q61.2737,163.7047,60.9225,163.9012Q60.5714,164.0977,60.1015,164.0977Q59.6112,164.0977,59.2279,163.8975Q58.8446,163.6973,58.5819,163.3359Q58.3193,162.97461,58.182,162.48557Q58.0447,161.99644,58.0447,161.42027ZM59.4524,161.31773L59.4524,161.42027Q59.4524,161.74963,59.5049,162.03345Q59.5573,162.31726,59.6769,162.53302Q59.7965,162.74869999999999,59.9891,162.86948Q60.1817,162.99025,60.4585,162.99025Q60.8184,162.99025,61.0526,162.82629Q61.2869,162.66234,61.4114,162.37303Q61.5359,162.08365,61.5575,161.71088L61.5575,161.07008Q61.5453,160.76514,61.4734,160.51695Q61.4016,160.26877,61.2679,160.09253Q61.1343,159.91629,60.9358,159.82062Q60.7373,159.72495,60.4683,159.72495Q60.1931,159.72495,59.9998,159.84732Q59.8064,159.9697,59.6851,160.18622Q59.5639,160.40266,59.5081,160.69228Q59.4524,160.98181,59.4524,161.31773ZM66.3264,164.0977Q65.7118,164.0977,65.22370000000001,163.8997Q64.7356,163.7018,64.39580000000001,163.3501Q64.05619999999999,162.99841,63.877,162.53294Q63.6978,162.06747000000001,63.6978,161.53731L63.6978,161.3455Q63.6978,160.74393,63.8684,160.24519Q64.039,159.74646,64.3595,159.3817Q64.68,159.01686,65.13810000000001,158.81804Q65.59620000000001,158.61914,66.1695,158.61914Q66.73259999999999,158.61914,67.16669999999999,158.80453Q67.6009,158.98993,67.896,159.33080999999999Q68.1911,159.67162,68.3428,160.14777Q68.49459999999999,160.62392,68.49459999999999,161.20703L68.49459999999999,161.79099L64.2978,161.79099L64.2978,160.85516L67.1148,160.85516L67.1148,160.74706Q67.1118,160.45508,67.00710000000001,160.22231Q66.9025,159.98953,66.6935,159.85411Q66.4845,159.71861,66.1596,159.71861Q65.8784,159.71861,65.6776,159.83977Q65.4767,159.96092,65.3523,160.18011Q65.22800000000001,160.39923,65.1685,160.69601Q65.1089,160.99272,65.1089,161.3455L65.1089,161.53731Q65.1089,161.85706,65.1974,162.12546Q65.2858,162.39386,65.4553,162.58826Q65.6249,162.78265,65.86580000000001,162.89122Q66.10669999999999,162.99971,66.4149,162.99971Q66.7975,162.99971,67.1262,162.85071Q67.455,162.70171,67.69409999999999,162.39775L68.3766,163.14Q68.2123,163.379,67.9271,163.6001Q67.642,163.8212,67.2404,163.9595Q66.8389,164.0977,66.3264,164.0977ZM72.0694,160.39801L72.0694,161.50084L69.3127,161.50084L69.3127,160.39801L72.0694,160.39801ZM74.721,158.7168L74.721,164L73.3099,164L73.3099,158.7168L74.721,158.7168ZM73.2217,157.3419Q73.2217,157.03284,73.437,156.83188Q73.6523,156.63084,74.012,156.63084Q74.37,156.63084,74.5869,156.83188Q74.8038,157.03284,74.8038,157.3419Q74.8038,157.64784,74.5869,157.84804Q74.37,158.04823,74.012,158.04823Q73.6523,158.04823,73.437,157.84804Q73.2217,157.64784,73.2217,157.3419ZM77.2596,159.84473L77.2596,164L75.85329999999999,164L75.85329999999999,158.7168L77.17439999999999,158.7168L77.2596,159.84473ZM77.05799999999999,161.1714L76.6753,161.17331000000001Q76.6769,160.58836,76.8266,160.11702Q76.9762,159.6456,77.2495,159.31044Q77.5227,158.97528,77.9025,158.79721Q78.2824,158.61914,78.74770000000001,158.61914Q79.12180000000001,158.61914,79.4293,158.7258Q79.73689999999999,158.83238,79.959,159.06851Q80.18119999999999,159.30464,80.3,159.68825Q80.41890000000001,160.07185,80.41890000000001,160.63071L80.41890000000001,164L79.0044,164L79.0044,160.6243Q79.0044,160.27541,78.90559999999999,160.08017Q78.8067,159.88493,78.6186,159.80498Q78.4306,159.72495,78.1582,159.72495Q77.8776,159.72495,77.6695,159.83679Q77.4615,159.94856,77.32650000000001,160.14632Q77.1916,160.34407,77.1248,160.60599Q77.05799999999999,160.8679,77.05799999999999,161.1714ZM84.2618,160.39801L84.2618,161.50084L81.5051,161.50084L81.5051,160.39801L84.2618,160.39801ZM87.6128,162.99818Q87.8722,162.99818,88.0711,162.89778Q88.2702,162.7973,88.3847,162.61504Q88.4993,162.43269,88.5039,162.18451L89.8297,162.18451Q89.8252,162.73924,89.5313,163.1719Q89.2375,163.6045,88.7439,163.8511Q88.2504,164.0977,87.6392,164.0977Q87.027,164.0977,86.5702,163.8927Q86.1134,163.6877,85.8096,163.3231Q85.5059,162.95851,85.3552,162.4742Q85.2045,161.98988,85.2045,161.43118L85.2045,161.28897Q85.2045,160.73027,85.3552,160.24428Q85.5059,159.75829,85.8096,159.39375Q86.1134,159.02914,86.5685,158.82414Q87.0237,158.61914,87.6326,158.61914Q88.2792,158.61914,88.7711,158.869Q89.2632,159.11879,89.5441,159.57907Q89.8252,160.03928,89.8297,160.67213L88.5039,160.67213Q88.4993,160.40457,88.3952,160.19057Q88.2911,159.97649,88.0929,159.84755Q87.8947,159.71861,87.6061,159.71861Q87.3003,159.71861,87.1039,159.84747Q86.9075,159.97633,86.8002,160.19926Q86.6928,160.4222,86.6518,160.70212Q86.6108,160.98196,86.6108,161.28897L86.6108,161.43118Q86.6108,161.74147,86.651,162.02383Q86.6913,162.30612,86.8002,162.52501Q86.9093,162.74382,87.1056,162.871Q87.302,162.99818,87.6128,162.99818ZM92.0121,156.5L92.0121,164L90.6059,164L90.6059,156.5L92.0121,156.5ZM91.8105,161.1714L91.4279,161.17331000000001Q91.4295,160.6214,91.5725,160.15501Q91.7155,159.68863,91.9788,159.34355Q92.2422,158.9984,92.6105,158.80881Q92.9787,158.61914,93.4274,158.61914Q93.8181,158.61914,94.1388,158.72908Q94.4596,158.83902,94.6917,159.08179Q94.9238,159.32448,95.0492,159.71304Q95.1747,160.10161,95.1747,160.66054L95.1747,164L93.7603,164L93.7603,160.65077Q93.7603,160.29852,93.6597,160.09673Q93.5592,159.89485,93.3711,159.80994Q93.1831,159.72495,92.9108,159.72495Q92.607,159.72495,92.3956,159.83679Q92.1842,159.94856,92.0559,160.14632Q91.9276,160.34407,91.869,160.60599Q91.8105,160.8679,91.8105,161.1714ZM97.7239,158.7168L97.7239,164L96.3128,164L96.3128,158.7168L97.7239,158.7168ZM96.2246,157.3419Q96.2246,157.03284,96.4399,156.83188Q96.6553,156.63084,97.0149,156.63084Q97.373,156.63084,97.5899,156.83188Q97.8068,157.03284,97.8068,157.3419Q97.8068,157.64784,97.5899,157.84804Q97.373,158.04823,97.0149,158.04823Q96.6553,158.04823,96.4399,157.84804Q96.2246,157.64784,96.2246,157.3419ZM100.2625,159.84473L100.2625,164L98.8563,164L98.8563,158.7168L100.1773,158.7168L100.2625,159.84473ZM100.0609,161.1714L99.6783,161.17331000000001Q99.6799,160.58836,99.8295,160.11702Q99.9791,159.6456,100.2524,159.31044Q100.5257,158.97528,100.9055,158.79721Q101.2853,158.61914,101.7506,158.61914Q102.1247,158.61914,102.4323,158.7258Q102.7398,158.83238,102.962,159.06851Q103.1841,159.30464,103.3029,159.68825Q103.4218,160.07185,103.4218,160.63071L103.4218,164L102.0074,164L102.0074,160.6243Q102.0074,160.27541,101.9085,160.08017Q101.8096,159.88493,101.6216,159.80498Q101.4335,159.72495,101.1611,159.72495Q100.8805,159.72495,100.6725,159.83679Q100.4644,159.94856,100.3294,160.14632Q100.1945,160.34407,100.1277,160.60599Q100.0609,160.8679,100.0609,161.1714ZM107.3454,162.80882L107.3454,160.45638Q107.3454,160.20338,107.2622,160.01944Q107.1791,159.83549,107.0061,159.73334Q106.8332,159.63118,106.5597,159.63118Q106.3237,159.63118,106.1517,159.71198Q105.9798,159.79277,105.887,159.94025Q105.7942,160.08765,105.7942,160.29082L104.388,160.29082Q104.388,159.95139,104.5461,159.64827Q104.7041,159.34508,104.9998,159.11307Q105.2956,158.88106,105.7103,158.75014Q106.125,158.61914,106.6365,158.61914Q107.2491,158.61914,107.7274,158.82437Q108.2056,159.0296,108.4819,159.43922Q108.7582,159.84885,108.7582,160.46614L108.7582,162.7252Q108.7582,163.1609,108.8129,163.4373Q108.8676,163.7137,108.9703,163.9186L108.9703,164L107.5481,164Q107.4467,163.7842,107.396,163.4601Q107.3454,163.136,107.3454,162.80882ZM107.5314,160.78032L107.5412,161.58049L106.7538,161.58049Q106.4739,161.58049,106.2688,161.6432Q106.0637,161.70592,105.933,161.81975Q105.8024,161.9335,105.7396,162.08517Q105.6769,162.23685,105.6769,162.41812Q105.6769,162.59764,105.761,162.74153Q105.8453,162.88542,106.0011,162.96706Q106.1571,163.0486,106.3667,163.0486Q106.6858,163.0486,106.9188,162.92082Q107.1518,162.79295,107.2819,162.60855Q107.412,162.42407,107.4168,162.2576L107.7859,162.85429Q107.7087,163.0528,107.5755,163.2687Q107.4424,163.4846,107.2372,163.672Q107.0321,163.8594,106.7424,163.9786Q106.4528,164.0977,106.0595,164.0977Q105.5555,164.0977,105.1493,163.8943Q104.7432,163.6909,104.5061,163.3336Q104.2691,162.97636,104.2691,162.51707Q104.2691,162.10219,104.4235,161.77916Q104.5779,161.45605,104.8838,161.23381Q105.1897,161.01157,105.649,160.89598Q106.1083,160.78032,106.7132,160.78032L107.5314,160.78032ZM110,163.5215Q110,163.292,110.144,163.1333Q110.2881,162.97461,110.5615,162.97461Q110.835,162.97461,110.979,163.1333Q111.123,163.292,111.123,163.5215Q111.123,163.7461,110.979,163.9023Q110.835,164.0586,110.5615,164.0586Q110.2881,164.0586,110.144,163.9023Q110,163.7461,110,163.5215ZM114.6509,163.5947Q115.0195,163.5947,115.343,163.4543Q115.6665,163.314,115.8801,163.0393Q116.0938,162.76465,116.1206,162.36426L116.6821,162.36426Q116.6577,162.86719,116.3757,163.25900000000001Q116.0938,163.6509,115.6421,163.8743Q115.1904,164.0977,114.6509,164.0977Q114.0967,164.0977,113.6743,163.8962Q113.252,163.6948,112.9688,163.3359Q112.6855,162.97705,112.5415,162.49731Q112.3975,162.01758,112.3975,161.46094L112.3975,161.25586Q112.3975,160.69922,112.5415,160.21948Q112.6855,159.73975,112.9688,159.38086Q113.252,159.02197,113.6719,158.82056Q114.0918,158.61914,114.646,158.61914Q115.2124,158.61914,115.6628,158.84863Q116.1133,159.07812,116.3855,159.49927Q116.6577,159.92041,116.6821,160.49658L116.1206,160.49658Q116.0962,160.06934,115.896,159.76294000000001Q115.6958,159.45654,115.3699,159.28931Q115.0439,159.12207,114.646,159.12207Q114.1968,159.12207,113.8782,159.29541Q113.5596,159.46875,113.3618,159.77026Q113.1641,160.07178,113.0725,160.45386Q112.981,160.83594,112.981,161.25586L112.981,161.46094Q112.981,161.8833,113.0713,162.2666Q113.1616,162.6499,113.3594,162.94897Q113.5571,163.248,113.877,163.4214Q114.1968,163.5947,114.6509,163.5947ZM117.5342,161.43896L117.5342,161.28027Q117.5342,160.7041,117.7014,160.21704Q117.8687,159.72998,118.177,159.37231Q118.486,159.01465,118.921,158.81689Q119.355,158.61914,119.888,158.61914Q120.425,158.61914,120.861,158.81689Q121.296,159.01465,121.608,159.37231Q121.919,159.72998,122.085,160.21704Q122.251,160.7041,122.251,161.28027L122.251,161.43896Q122.251,162.01514,122.085,162.50098Q121.919,162.98682,121.609,163.3445Q121.299,163.7021,120.865,163.8999Q120.432,164.0977,119.897,164.0977Q119.36,164.0977,118.926,163.8999Q118.491,163.7021,118.18,163.3445Q117.8687,162.98682,117.7014,162.50098Q117.5342,162.01514,117.5342,161.43896ZM118.118,161.28027L118.118,161.43896Q118.118,161.87354,118.234,162.26172Q118.35,162.6499,118.575,162.9502Q118.801,163.2505,119.133,163.4226Q119.465,163.5947,119.897,163.5947Q120.325,163.5947,120.654,163.4226Q120.984,163.2505,121.208,162.9502Q121.433,162.6499,121.549,162.26172Q121.665,161.87354,121.665,161.43896L121.665,161.28027Q121.665,160.85303,121.549,160.46606Q121.433,160.0791,121.206,159.77637Q120.979,159.47363,120.648,159.29785Q120.317,159.12207,119.888,159.12207Q119.46,159.12207,119.131,159.29785Q118.801,159.47363,118.574,159.77637Q118.347,160.0791,118.232,160.46606Q118.118,160.85303,118.118,161.28027ZM124.016,159.80811L124.016,164L123.428,164L123.428,158.7168L123.992,158.7168L124.016,159.80811ZM123.906,161.03125L123.625,160.88477Q123.652,160.41846,123.802,160.0083Q123.953,159.59814,124.22,159.28564Q124.487,158.97314,124.865,158.79614Q125.242,158.61914,125.72,158.61914Q126.106,158.61914,126.42,158.72412Q126.733,158.8291,126.957,159.05249Q127.18,159.27588,127.301,159.62988Q127.422,159.98389,127.422,160.48193L127.422,164L126.838,164L126.838,160.50391Q126.838,159.979,126.676,159.68115Q126.514,159.3833,126.223,159.25635Q125.933,159.12939,125.552,159.12939Q125.103,159.12939,124.792,159.31128Q124.482,159.49316,124.29,159.78369Q124.097,160.07422,124.005,160.40503Q123.914,160.73584,123.906,161.03125ZM127.417,160.57227L127.024,160.58447Q127.051,160.19873,127.205,159.84595Q127.358,159.49316,127.626,159.21729Q127.893,158.94141,128.268,158.78027Q128.643,158.61914,129.10899999999998,158.61914Q129.52100000000002,158.61914,129.844,158.73022Q130.166,158.84131,130.388,159.07568Q130.61,159.31006,130.726,159.67627Q130.84199999999998,160.04248,130.84199999999998,160.55518L130.84199999999998,164L130.256,164L130.256,160.55029Q130.256,159.99121,130.094,159.68237Q129.93200000000002,159.37354,129.642,159.25024Q129.353,159.12695,128.97,159.12939Q128.586,159.13184,128.3,159.26733Q128.013,159.40283,127.82,159.6189Q127.627,159.83496,127.527,160.08521Q127.427,160.33545,127.417,160.57227Z" fill="#E64545" fill-opacity="1"/></g><g transform="matrix(0,1,-1,0,148,108)"><path d="M25.59644,133.14075L22.19531,143L20.139648,143L24.418210000000002,131.625L25.73181,131.625L25.59644,133.14075ZM28.43701,143L25.02808,133.14075L24.881230000000002,131.625L26.203490000000002,131.625L30.500500000000002,143L28.43701,143ZM28.27332,138.7776L28.27332,140.3363L22.08643,140.3363L22.08643,138.7776L28.27332,138.7776ZM35.4691,131.625L35.4691,143L33.5226,143L33.5226,131.625L35.4691,131.625ZM39.0392,131.625L39.0392,133.18372L29.98608,133.18372L29.98608,131.625L39.0392,131.625Z" fill="#5DB7EB" fill-opacity="1"/><path d="" fill="#FFFFFF" fill-opacity="1"/></g><g transform="matrix(0,1,-1,0,169,129)"><rect x="20.5" y="149.5" width="141" height="19" rx="1.5" fill-opacity="0" stroke-opacity="1" stroke="#BD9E7F" fill="none" stroke-width="1"/></g><g transform="matrix(0,1,-1,0,291,251)"><path d="M20,271L20,291L38,291C39.104600000000005,291,40,290.1046,40,289L40,273C40,271.895431,39.104600000000005,271,38,271L20,271Z" fill="#BD9E7F" fill-opacity="1"/><path d="M38,271L20,271L20,291L38,291C39.104600000000005,291,40,290.1046,40,289L40,273C40,271.895431,39.104600000000005,271,38,271ZM21,290L21,272L38,272Q38.4142,272,38.7071,272.29289Q39,272.58579,39,273L39,289Q39,289.4142,38.7071,289.7071Q38.4142,290,38,290L21,290Z" fill-rule="evenodd" fill="#BD9E7F" fill-opacity="1"/></g><g transform="matrix(0,1,-1,0,291,257)"><g><ellipse cx="22.489627838134766" cy="279.48962783813477" rx="4.121472209692001" ry="4.121472209692001" fill-opacity="0" stroke-opacity="1" stroke="#FFFFFF" fill="none" stroke-width="0.7363112568855286"/></g><g transform="matrix(0.6956943869590759,-0.7183379530906677,0.7152677774429321,0.6988505125045776,-195.23351826613361,103.32416755486338)"><rect x="24.956787109375" y="283.5693359375" width="2.201836585998535" height="4.909265995025635" rx="1.1009182929992676" fill="#FFFFFF" fill-opacity="1"/></g><g transform="matrix(0.6956943273544312,-0.7183380126953125,0.7152677774429321,0.6988504528999329,-194.53571159337298,103.03038868121803)"><rect x="24.956787109375" y="282.59375" width="0.8436073660850525" height="1.2379542589187622" rx="0.42180368304252625" fill="#FFFFFF" fill-opacity="1"/></g></g><g transform="matrix(0,1,-1,0,186,68)"><path d="M66.14172,139.0704Q66.14172,138.7208,66.03638,138.4467Q65.93115,138.1725,65.66333,137.9454Q65.39563,137.7184,64.91699,137.5048Q64.43848,137.2911,63.69409,137.0653Q62.88477,136.81531,62.19934,136.50391Q61.51392,136.19238,61.00647,135.78394Q60.49915,135.37549,60.21838,134.83838Q59.937622,134.30115,59.937622,133.59985Q59.937622,132.90991,60.23108,132.3374Q60.52466,131.76477,61.06506,131.3468Q61.60559,130.92883,62.34802,130.69885Q63.09058,130.46875,63.99133,130.46875Q65.26111,130.46875,66.17859,130.93701Q67.09619,131.40515,67.59216,132.19324Q68.08813,132.9812,68.08813,133.94067L66.13757,133.94067Q66.13757,133.37756,65.90002,132.94324Q65.66248,132.50879,65.18237,132.25952Q64.70227,132.01025,63.968379999999996,132.01025Q63.2699,132.01025,62.80957,132.22083Q62.34937,132.4314,62.12268,132.78955Q61.896,133.14758,61.896,133.59851Q61.896,133.92065,62.04541,134.18201Q62.19495,134.44336,62.49902,134.6676Q62.80322,134.89172,63.26404,135.08545Q63.72498,135.27917,64.34778,135.46008Q65.29358,135.73938,65.99805,136.08252Q66.70264,136.42554,67.17114,136.85498Q67.63965,137.2844,67.87378,137.8276Q68.10791,138.3707,68.10791,139.0548Q68.10791,139.776,67.82092,140.35Q67.53394,140.924,66.99902,141.3268Q66.46411,141.7295,65.71777,141.9429Q64.97156,142.1562,64.0531,142.1562Q63.23242,142.1562,62.43909,141.936Q61.64587,141.7158,61.000370000000004,141.2683Q60.35486,140.8208,59.96936,140.1448Q59.583984,139.4686,59.583984,138.5597L61.54321,138.5597Q61.54321,139.114,61.73535,139.5048Q61.92749,139.8954,62.27173,140.1445Q62.61609,140.3936,63.072630000000004,140.5081Q63.52917,140.6226,64.0531,140.6226Q64.74463,140.6226,65.20824999999999,140.4282Q65.67188,140.2339,65.90674,139.8837Q66.14172,139.5333,66.14172,139.0704ZM79.3977,136.00195L79.3977,136.62598Q79.3977,137.9158,79.0615,138.9386Q78.7255,139.9614,78.101,140.6796Q77.4765,141.3976,76.6122,141.777Q75.7481,142.1562,74.6889,142.1562Q73.6466,142.1562,72.7809,141.777Q71.9153,141.3976,71.28190000000001,140.6796Q70.6486,139.9614,70.3025,138.9386Q69.9566,137.9158,69.9566,136.62598L69.9566,136.00195Q69.9566,134.71204,70.3001,133.69031Q70.64359999999999,132.66858,71.2716,131.948Q71.8997,131.22742,72.7653,130.84814Q73.631,130.46875,74.6732,130.46875Q75.7324,130.46875,76.598,130.84814Q77.46379999999999,131.22742,78.0907,131.948Q78.71770000000001,132.66858,79.05760000000001,133.69031Q79.3977,134.71204,79.3977,136.00195ZM77.432,136.62598L77.432,135.98633Q77.432,135.03381,77.2479,134.30286Q77.0639,133.57178,76.7084,133.07495Q76.35300000000001,132.57812,75.8391,132.32336Q75.3252,132.0686,74.6732,132.0686Q74.0275,132.0686,73.5199,132.32336Q73.0123,132.57812,72.6574,133.07495Q72.3024,133.57178,72.1138,134.30286Q71.9252,135.03381,71.9252,135.98633L71.9252,136.62598Q71.9252,137.5806,72.1138,138.3141Q72.3024,139.0475,72.6637,139.5497Q73.0252,140.0519,73.5341,140.3081Q74.0431,140.5642,74.6889,140.5642Q75.3457,140.5642,75.8557,140.3081Q76.3659,140.0519,76.7173,139.5497Q77.0689,139.0475,77.2504,138.3141Q77.432,137.5806,77.432,136.62598ZM88.2093,130.625L90.1656,130.625L90.1656,138.2228Q90.1656,139.5212,89.601,140.3972Q89.0364,141.2731,88.07339999999999,141.7147Q87.1105,142.1562,85.91720000000001,142.1562Q84.6949,142.1562,83.7326,141.7147Q82.77029999999999,141.2731,82.2187,140.3972Q81.66720000000001,139.5212,81.66720000000001,138.2228L81.66720000000001,130.625L83.6214,130.625L83.6214,138.2228Q83.6214,139.0444,83.90350000000001,139.5724Q84.1857,140.1003,84.70230000000001,140.3529Q85.219,140.6053,85.91720000000001,140.6053Q86.623,140.6053,87.1368,140.3529Q87.6506,140.1003,87.9298,139.5724Q88.2093,139.0444,88.2093,138.2228L88.2093,130.625ZM92.7735,130.625L96.8004,130.625Q98.09309999999999,130.625,99.0099,131.01562Q99.9268,131.40625,100.41460000000001,132.16943Q100.9024,132.93262,100.9024,134.04773Q100.9024,134.90063,100.5903,135.54955999999999Q100.2781,136.19836,99.7055,136.63904Q99.1329,137.0796,98.34989999999999,137.3184L97.753,137.6088L94.1336,137.6088L94.118,136.05505L96.83,136.05505Q97.5363,136.05505,98.0036,135.80579Q98.4709,135.5564,98.7084,135.12231Q98.9461,134.68811,98.9461,134.13953Q98.9461,133.54358,98.717,133.10303Q98.4879,132.66248,98.01169999999999,132.4231Q97.5355,132.18372,96.8004,132.18372L94.7348,132.18372L94.7348,142L92.7735,142L92.7735,130.625ZM99.267,142L96.5932,136.88965L98.6542,136.87903L101.3643,141.8976L101.3643,142L99.267,142ZM110.0446,138.2968L111.9981,138.2968Q111.9039,139.415,111.3723,140.2867Q110.8408,141.1583,109.8822,141.6573Q108.9237,142.1562,107.5421,142.1562Q106.4904,142.1562,105.64529999999999,141.7784Q104.80019999999999,141.4005,104.2014,140.6991Q103.6026,139.9976,103.2833,139.0063Q102.9641,138.015,102.9641,136.78809L102.9641,135.84473Q102.9641,134.6178,103.289,133.62512Q103.61410000000001,132.63232,104.22319999999999,131.927Q104.8324,131.22168,105.6904,130.84375Q106.54849999999999,130.46582,107.6118,130.46582Q108.9726,130.46582,109.9119,130.96753Q110.8514,131.46912,111.3719,132.35046Q111.89240000000001,133.23169000000001,112.0039,134.37671L110.0504,134.37671Q109.9755,133.63733,109.7131,133.11475Q109.45060000000001,132.59216,108.9439,132.31409Q108.43719999999999,132.03601,107.6118,132.03601Q106.9459,132.03601,106.4448,132.28784Q105.94380000000001,132.53955,105.60730000000001,133.0249Q105.2707,133.51025,105.1026,134.21655Q104.9346,134.92285,104.9346,135.8291L104.9346,136.78809Q104.9346,137.6499,105.086,138.3499Q105.23740000000001,139.0498,105.55369999999999,139.5499Q105.87010000000001,140.05,106.363,140.3206Q106.856,140.5911,107.5421,140.5911Q108.3797,140.5911,108.8983,140.3252Q109.4169,140.0592,109.6884,139.5477Q109.9599,139.0363,110.0446,138.2968ZM121.6968,140.4491L121.6968,142L115.6589,142L115.6589,140.4491L121.6968,140.4491ZM116.21039999999999,130.625L116.21039999999999,142L114.2491,142L114.2491,130.625L116.21039999999999,130.625ZM120.90559999999999,135.37793L120.90559999999999,136.90295L115.6589,136.90295L115.6589,135.37793L120.90559999999999,135.37793ZM121.6559,130.625L121.6559,132.18372L115.6589,132.18372L115.6589,130.625L121.6559,130.625Z" fill="#5DB7EB" fill-opacity="1"/></g><g transform="matrix(0,1,-1,0,115,3)"><rect x="56" y="59" width="56" height="56" rx="1" fill="#E71A0F" fill-opacity="1"/></g><g><g><g transform="matrix(0,1,-1,0,109.996337890625,26.003662109375)"><path d="M42.150191890625,95.9526C42.093903790625,96.0239,42.045120890625,96.1027,41.996337890625,96.1815C43.396037890625,96.1815,44.795727890625,96.1815,46.199177890625,96.1778C46.229197890625,96.1252,46.251717890625,96.069,46.289237890625,96.0202C50.664697890625,90.4176,55.040137890625,84.81139999999999,59.415637890625,79.2088C59.453137890625,79.1638,59.494437890625,79.1188,59.580737890625,79.0775L59.580737890625,95.9001C59.580737890625,95.9939,59.584437890625,96.0877,59.584437890625,96.1815L64.008737890625,96.1815C64.076237890625,96.084,64.140037890625,95.9864,64.211337890625,95.8926C66.875637890625,92.4815,69.536237890625,89.0705,72.200537890625,85.6594C72.241737890625,85.6069,72.283037890625,85.5581,72.350637890625,85.4756C72.358137890625,85.56190000000001,72.369337890625,85.6069,72.369337890625,85.6519L72.369337890625,96.1065C72.369337890625,96.1328,72.365637890625,96.1553,72.365637890625,96.1815L79.000137890625,96.1815C78.996337890625,96.0952,78.99263789062499,96.0052,78.99263789062499,95.91890000000001L78.99263789062499,68.0375244C78.977537890625,68.0375244,78.966337890625,68.0337718,78.951337890625,68.0337718C73.975437890625,74.40182,69.003337890625,80.7736,64.034937890625,87.1454C64.016237890625,87.1379,64.00123789062499,87.13419999999999,63.986237890625,87.1267L63.986237890625,68C63.914937890625,68.0863083,63.873637890625005,68.131339,63.836137890625,68.176369C62.830437890625,69.46724,61.820937890625004,70.75436,60.815337890625,72.04523C54.593637890625004,80.0156,48.371897890625,87.9822,42.150191890625,95.9526ZM51.572927890624996,91.0782C50.244527890625,92.7781,48.912377890625,94.4817,47.583987890625,96.1816C48.994937890624996,96.1816,50.405887890624996,96.1816,51.816847890625,96.1779C51.869377890625,96.09909999999999,51.914407890625,96.009,51.974447890625,95.934C54.090837890625,93.2246,56.207337890625,90.5115,58.327537890624995,87.80969999999999C58.410037890625,87.7009,58.451337890625,87.5921,58.451337890625,87.4532C58.447537890625,85.8021,58.447537890625,84.15469999999999,58.447537890625,82.5074L58.447537890625,82.2822C58.368737890625,82.376,58.323737890625,82.4323,58.278737890624996,82.4886C56.045937890625,85.3518,53.809437890625,88.215,51.572927890624996,91.0782Z" fill-rule="evenodd" fill="#FFFFFF" fill-opacity="1"/></g></g></g></g></svg>