<svg xmlns="http://www.w3.org/2000/svg" xmlns:xlink="http://www.w3.org/1999/xlink" fill="none" version="1.1" width="378" height="56" viewBox="0 0 378 56"><defs><linearGradient x1="0.5" y1="0.34924566745758057" x2="0.5" y2="1" id="master_svg0_97_1986"><stop offset="0%" stop-color="#EE655D" stop-opacity="1"/><stop offset="100%" stop-color="#EFCB98" stop-opacity="0"/></linearGradient><clipPath id="master_svg1_225_1968"><rect x="47" y="66" width="50" height="38.088233947753906" rx="0"/></clipPath></defs><g transform="matrix(0,-1,1,0,-56,56)"><g><path d="M56,434L56,56L0,56L0,434L56,434Z" fill-rule="evenodd" fill="url(#master_svg0_97_1986)" fill-opacity="1"/></g><g><g transform="matrix(0,1,-1,0,244,144)"><path d="M56.64016,207.4389L59.48438,209.6937L58.11687,210.8718L55.32076,208.62630000000001L56.64016,207.4389ZM59.55582,203.5012L59.55582,204.0034Q59.55582,205.2008,59.23321,206.1506Q58.91072,207.1003,58.31384,207.7688Q57.71707,208.4373,56.90023,208.7907Q56.0834,209.1442,55.0901,209.1442Q54.101079999999996,209.1442,53.28188,208.7907Q52.46268,208.4373,51.86231,207.7688Q51.26205,207.1003,50.934815,206.1506Q50.607585,205.2008,50.607585,204.0034L50.607585,203.5012Q50.607585,202.30383,50.933576,201.35291Q51.25968,200.40187,51.85397,199.73219Q52.44826,199.06252,53.26746,198.70903Q54.08666,198.35555,55.07568,198.35555Q56.06897,198.35555,56.88942,198.70903Q57.70986,199.06252,58.30662,199.73219Q58.9035,200.40187,59.22961,201.35291Q59.55582,202.30383,59.55582,203.5012ZM57.36719,204.0034L57.36719,203.48678Q57.36719,202.65676,57.215180000000004,202.02111Q57.06317,201.38547,56.76862,200.95378Q56.47418,200.52199,56.0479,200.30135Q55.62162,200.08072,55.07568,200.08072Q54.52669,200.08072,54.10401,200.30135Q53.68134,200.52199,53.38938,200.95378Q53.09742,201.38547,52.94676,202.02111Q52.79622,202.65676,52.79622,203.48678L52.79622,204.0034Q52.79622,204.83089999999999,52.94676,205.4677Q53.09742,206.1045,53.39299,206.5424Q53.68855,206.9802,54.11483,207.2033Q54.54111,207.4263,55.0901,207.4263Q55.63605,207.4263,56.05985,207.2033Q56.483760000000004,206.9802,56.77459,206.5424Q57.06554,206.1045,57.21631,205.4677Q57.36719,204.83089999999999,57.36719,204.0034ZM67.6539,198.49978L69.8155,198.49978L69.8155,205.4372Q69.8155,206.6492,69.2989,207.4769Q68.7822,208.3044,67.8765,208.7244Q66.9709,209.1442,65.7976,209.1442Q64.6179,209.1442,63.7072,208.7244Q62.7966,208.3044,62.2808,207.4769Q61.7649,206.6492,61.7649,205.4372L61.7649,198.49978L63.929,198.49978L63.929,205.4372Q63.929,206.142,64.1537,206.5902Q64.3785,207.0383,64.7983,207.2491Q65.2182,207.4599,65.7976,207.4599Q66.3843,207.4599,66.79939999999999,207.2491Q67.2144,207.0383,67.4341,206.5902Q67.6539,206.142,67.6539,205.4372L67.6539,198.49978ZM76.4405,200.29504L73.5852,209L71.2849,209L75.1897,198.49978L76.6528,198.49978L76.4405,200.29504ZM78.8166,209L75.95400000000001,200.29504L75.7222,198.49978L77.2,198.49978L81.1241,209L78.8166,209ZM78.69,205.0934L78.69,206.785L73.1378,206.785L73.1378,205.0934L78.69,205.0934ZM89.5881,207.3156L89.5881,209L84.2989,209L84.2989,207.3156L89.5881,207.3156ZM84.9981,198.49978L84.9981,209L82.8341,209L82.8341,198.49978L84.9981,198.49978ZM93.8671,198.49978L93.8671,209L91.708,209L91.708,198.49978L93.8671,198.49978ZM101.1082,198.49978L101.1082,209L98.9512,209L98.9512,198.49978L101.1082,198.49978ZM104.33670000000001,198.49978L104.33670000000001,200.19137L95.7739,200.19137L95.7739,198.49978L104.33670000000001,198.49978ZM107.86359999999999,198.49978L110.0521,203.28778L112.24770000000001,198.49978L114.604,198.49978L111.15,205.1795L111.15,209L108.9567,209L108.9567,205.1795L105.49770000000001,198.49978L107.86359999999999,198.49978ZM124.7976,205.2584L122.1242,205.2584L122.1242,203.56904L124.7976,203.56904Q125.4219,203.56904,125.8095,203.36328Q126.197,203.15741,126.3776,202.79119Q126.5582,202.42486,126.5582,201.96049Q126.5582,201.49297,126.3776,201.09036Q126.197,200.68763,125.8095,200.4395Q125.4219,200.19137,124.7976,200.19137L122.8738,200.19137L122.8738,209L120.7099,209L120.7099,198.49978L124.7976,198.49978Q126.0364,198.49978,126.9196,198.9451Q127.8028,199.39031,128.2722,200.16884Q128.74169999999998,200.94736,128.74169999999998,201.94607Q128.74169999999998,202.96066,128.2722,203.70392Q127.8028,204.4472,126.9196,204.8528Q126.0364,205.2584,124.7976,205.2584ZM130.9678,198.49978L134.8885,198.49978Q136.0908,198.49978,136.9606,198.86037Q137.8304,199.22095,138.2986,199.92657Q138.7668,200.63208,138.7668,201.66594Q138.7668,202.50926,138.482,203.11154Q138.19729999999998,203.71383,137.6821,204.1139Q137.167,204.5139,136.47320000000002,204.7501L135.7858,205.1165L132.38209999999998,205.1165L132.3677,203.42717L134.9025,203.42717Q135.4716,203.42717,135.8471,203.22502Q136.2225,203.02286,136.4139,202.66126Q136.6052,202.29967,136.6052,201.82234Q136.6052,201.3191,136.416,200.95277Q136.2269,200.58644,135.84550000000002,200.38891Q135.4642,200.19137,134.8885,200.19137L133.1318,200.19137L133.1318,209L130.9678,209L130.9678,198.49978ZM136.841,209L134.4445,204.3185L136.7296,204.3063L139.15730000000002,208.8988L139.15730000000002,209L136.841,209ZM149.7946,203.5012L149.7946,204.0034Q149.7946,205.2008,149.47199999999998,206.1506Q149.1495,207.1003,148.55509999999998,207.7688Q147.9607,208.4373,147.1439,208.7907Q146.3272,209.1442,145.3339,209.1442Q144.3449,209.1442,143.5257,208.7907Q142.7065,208.4373,142.1061,207.7688Q141.5058,207.1003,141.17860000000002,206.1506Q140.8514,205.2008,140.8514,204.0034L140.8514,203.5012Q140.8514,202.30383,141.1774,201.35291Q141.5035,200.40187,142.0977,199.73219Q142.692,199.06252,143.5112,198.70903Q144.3304,198.35555,145.3195,198.35555Q146.31279999999998,198.35555,147.132,198.70903Q147.9513,199.06252,148.54680000000002,199.73219Q149.1423,200.40187,149.4684,201.35291Q149.7946,202.30383,149.7946,203.5012ZM147.611,204.0034L147.611,203.48678Q147.611,202.65676,147.459,202.02111Q147.30700000000002,201.38547,147.0124,200.95378Q146.71800000000002,200.52199,146.2904,200.30135Q145.863,200.08072,145.3195,200.08072Q144.7681,200.08072,144.34539999999998,200.30135Q143.9228,200.52199,143.6319,200.95378Q143.34120000000001,201.38547,143.1905,202.02111Q143.04000000000002,202.65676,143.04000000000002,203.48678L143.04000000000002,204.0034Q143.04000000000002,204.83089999999999,143.1905,205.4677Q143.34120000000001,206.1045,143.6368,206.5424Q143.9323,206.9802,144.35739999999998,207.2033Q144.7825,207.4263,145.3339,207.4263Q145.8798,207.4263,146.30360000000002,207.2033Q146.72750000000002,206.9802,147.01839999999999,206.5424Q147.3093,206.1045,147.4601,205.4677Q147.611,204.83089999999999,147.611,204.0034ZM155.317,209L153.03199999999998,209L153.046,207.3156L155.317,207.3156Q156.168,207.3156,156.75,206.9288Q157.33100000000002,206.5419,157.631,205.7997Q157.93200000000002,205.0575,157.93200000000002,204.0037L157.93200000000002,203.48892Q157.93200000000002,202.68515,157.762,202.07002Q157.59199999999998,201.45477,157.262,201.03638Q156.93099999999998,200.61799,156.446,200.40468Q155.962,200.19137,155.334,200.19137L152.988,200.19137L152.988,198.49978L155.334,198.49978Q156.39,198.49978,157.268,198.85699Q158.14600000000002,199.21419,158.787,199.87924Q159.428,200.54418,159.776,201.46142Q160.125,202.37854,160.125,203.50334L160.125,204.0037Q160.125,205.1236,159.776,206.0432Q159.428,206.9628,158.787,207.6243Q158.14600000000002,208.2856,157.265,208.6428Q156.38400000000001,209,155.317,209ZM154.253,198.49978L154.253,209L152.089,209L152.089,198.49978L154.253,198.49978ZM168.224,198.49978L170.385,198.49978L170.385,205.4372Q170.385,206.6492,169.869,207.4769Q169.352,208.3044,168.446,208.7244Q167.541,209.1442,166.36700000000002,209.1442Q165.188,209.1442,164.277,208.7244Q163.36700000000002,208.3044,162.851,207.4769Q162.33499999999998,206.6492,162.33499999999998,205.4372L162.33499999999998,198.49978L164.499,198.49978L164.499,205.4372Q164.499,206.142,164.724,206.5902Q164.94799999999998,207.0383,165.368,207.2491Q165.788,207.4599,166.36700000000002,207.4599Q166.954,207.4599,167.369,207.2491Q167.784,207.0383,168.00400000000002,206.5902Q168.224,206.142,168.224,205.4372L168.224,198.49978ZM178.991,205.5144L181.147,205.5144Q181.078,206.578,180.563,207.3983Q180.048,208.2185,179.128,208.6814Q178.209,209.1442,176.922,209.1442Q175.911,209.1442,175.10899999999998,208.7932Q174.30599999999998,208.4421,173.743,207.7869Q173.18,207.1315,172.88400000000001,206.2019Q172.587,205.2722,172.587,204.1151L172.587,203.3919Q172.587,202.23476,172.893,201.30276Q173.2,200.37065,173.77100000000002,199.71168Q174.34300000000002,199.05272,175.14600000000002,198.70171Q175.949,198.3507,176.937,198.3507Q178.249,198.3507,179.155,198.82713Q180.06,199.30355,180.559,200.13729Q181.059,200.97091,181.157,202.04354L179.001,202.04354Q178.958,201.40564,178.743,200.96359Q178.527,200.52153,178.091,200.29166Q177.655,200.06179,176.937,200.06179Q176.394,200.06179,175.989,200.26518Q175.583,200.46846,175.312,200.88065Q175.04000000000002,201.29285,174.90699999999998,201.91688Q174.773,202.54092,174.773,203.37748L174.773,204.1151Q174.773,204.9307,174.893,205.55Q175.014,206.1692,175.272,206.5885Q175.531,207.0077,175.938,207.2215Q176.345,207.4354,176.922,207.4354Q177.599,207.4354,178.038,207.2202Q178.476,207.0048,178.71,206.5786Q178.944,206.1523,178.991,205.5144ZM187.79,198.49978L187.79,209L185.633,209L185.633,198.49978L187.79,198.49978ZM191.018,198.49978L191.018,200.19137L182.456,200.19137L182.456,198.49978L191.018,198.49978ZM198.338,206.2532Q198.338,205.9685,198.253,205.7423Q198.168,205.5161,197.947,205.3244Q197.725,205.1327,197.321,204.9456Q196.918,204.7584,196.277,204.5567Q195.557,204.3259,194.92,204.0362Q194.283,203.74651,193.797,203.36159Q193.31,202.97666,193.033,202.46407Q192.756,201.95136,192.756,201.27493Q192.756,200.61788,193.043,200.08162Q193.329,199.54525,193.851,199.15943Q194.372,198.7736,195.082,198.56458Q195.792,198.35555,196.644,198.35555Q197.807,198.35555,198.672,198.77214Q199.536,199.18861,200.016,199.91834Q200.495,200.64796,200.495,201.58729L198.343,201.58729Q198.343,201.12788,198.152,200.77507Q197.96,200.42215,197.575,200.22Q197.19,200.01784,196.605,200.01784Q196.043,200.01784,195.667,200.18766Q195.291,200.35747,195.103,200.64447Q194.915,200.93136,194.915,201.28496Q194.915,201.55314,195.051,201.76983Q195.187,201.98652,195.452,202.17335Q195.717,202.36006,196.109,202.52548Q196.501,202.6909,197.013,202.84674Q197.868,203.10895,198.52,203.43134Q199.171,203.75361,199.612,204.1589Q200.054,204.5642,200.279,205.078Q200.504,205.5917,200.504,206.2388Q200.504,206.9246,200.235,207.4635Q199.965,208.0022,199.462,208.3773Q198.96,208.7524,198.259,208.9484Q197.557,209.1442,196.694,209.1442Q195.912,209.1442,195.155,208.9399Q194.398,208.7355,193.783,208.3146Q193.168,207.8936,192.801,207.2449Q192.434,206.5961,192.434,205.7124L194.601,205.7124Q194.601,206.1995,194.751,206.5389Q194.902,206.8783,195.18,207.0892Q195.459,207.3001,195.844,207.3946Q196.228,207.4892,196.694,207.4892Q197.256,207.4892,197.619,207.3288Q197.982,207.1683,198.16,206.8887Q198.338,206.6089,198.338,206.2532Z" fill="#FFFFFF" fill-opacity="1"/></g><g transform="matrix(0,1,-1,0,193,139)"><path d="M29.34723,175.86191L30.52138,172.1231L30.9045,172.1231L30.67913,173.12823L29.44864,177L29.06552,177L29.34723,175.86191ZM28.128,172.1231L29.16017,175.88444L29.37878,177L28.98664,177L27.571348,172.1231L28.128,172.1231ZM32.36712,175.86867L33.37225,172.1231L33.9289,172.1231L32.51135,177L32.12147,177L32.36712,175.86867ZM30.98112,172.1231L32.1395,175.8281L32.43248,177L32.05161,177L30.79407,173.12372L30.57997,172.1231L30.98112,172.1231ZM36.311009999999996,175.86191L37.4852,172.1231L37.8683,172.1231L37.6429,173.12823L36.41243,177L36.02931,177L36.311009999999996,175.86191ZM35.09179,172.1231L36.12396,175.88444L36.34256,177L35.95043,177L34.53513,172.1231L35.09179,172.1231ZM39.3309,175.86867L40.336,172.1231L40.8927,172.1231L39.4751,177L39.085300000000004,177L39.3309,175.86867ZM37.944900000000004,172.1231L39.103300000000004,175.8281L39.3963,177L39.0154,177L37.7579,173.12372L37.5438,172.1231L37.944900000000004,172.1231ZM43.2748,175.86191L44.448899999999995,172.1231L44.8321,172.1231L44.606700000000004,173.12823L43.3762,177L42.9931,177L43.2748,175.86191ZM42.0556,172.1231L43.0877,175.88444L43.3063,177L42.9142,177L41.4989,172.1231L42.0556,172.1231ZM46.2947,175.86867L47.299800000000005,172.1231L47.8565,172.1231L46.438900000000004,177L46.049,177L46.2947,175.86867ZM44.908699999999996,172.1231L46.067099999999996,175.8281L46.36,177L45.9792,177L44.721599999999995,173.12372L44.5075,172.1231L44.908699999999996,172.1231ZM48.827799999999996,176.5583Q48.827799999999996,176.3464,48.9608,176.2Q49.0937,176.05349999999999,49.3461,176.05349999999999Q49.5985,176.05349999999999,49.7315,176.2Q49.8645,176.3464,49.8645,176.5583Q49.8645,176.7656,49.7315,176.9099Q49.5985,177.0541,49.3461,177.0541Q49.0937,177.0541,48.9608,176.9099Q48.827799999999996,176.7656,48.827799999999996,176.5583ZM52.4135,173.13492L52.4135,177L51.114000000000004,177L51.114000000000004,172.1231L52.3348,172.1231L52.4135,173.13492ZM52.2331,174.38893L51.8729,174.39069Q51.8744,173.88123,51.9975,173.45071Q52.1207,173.02019,52.3624,172.70165Q52.604299999999995,172.38304,52.9601,172.20803Q53.316,172.03295,53.784400000000005,172.03295Q54.1118,172.03295,54.3819,172.12986Q54.652,172.22676,54.848600000000005,172.43262Q55.045100000000005,172.63841,55.1516,172.96448Q55.2582,173.29049,55.2582,173.7472L55.2582,177L53.9601,177L53.9601,173.89158Q53.9601,173.55733,53.871300000000005,173.37634Q53.7826,173.19534,53.6184,173.12456Q53.4543,173.05371,53.2243,173.05371Q52.9708,173.05371,52.7839,173.15696Q52.5971,173.26013,52.4743,173.44268Q52.351600000000005,173.62523,52.2923,173.867Q52.2331,174.10878,52.2331,174.38893ZM55.1392,174.24076L54.6719,174.3021Q54.6733,173.82453,54.792699999999996,173.41219Q54.912,172.99984,55.148399999999995,172.69003Q55.3849,172.38015000000001,55.7364,172.20655Q56.0878,172.03295,56.549,172.03295Q56.901399999999995,172.03295,57.1888,172.13359Q57.476299999999995,172.23416,57.6813,172.45283Q57.886399999999995,172.67151,57.9976,173.02491Q58.1088,173.37831,58.1088,173.88693L58.1088,177L56.806200000000004,177L56.806200000000004,173.88404Q56.806200000000004,173.54712,56.7174,173.36838Q56.628699999999995,173.18964,56.4653,173.12168Q56.3019,173.05371,56.076499999999996,173.05371Q55.841300000000004,173.05371,55.6661,173.14534Q55.490899999999996,173.23689,55.3726,173.39838Q55.254400000000004,173.55987,55.196799999999996,173.77474Q55.1392,173.98961,55.1392,174.24076ZM61.7472,175.90043L61.7472,173.72889Q61.7472,173.49536,61.6704,173.32556Q61.5938,173.15576,61.4341,173.06146Q61.2744,172.96716,61.022,172.96716Q60.8041,172.96716,60.6454,173.04174Q60.4866,173.11632,60.401,173.25246Q60.3154,173.38852,60.3154,173.57607L59.0173,173.57607Q59.0173,173.26274,59.1632,172.98293Q59.3091,172.70306,59.5821,172.48889Q59.8551,172.27472,60.2379,172.15387Q60.6207,172.03295,61.0929,172.03295Q61.6583,172.03295,62.0998,172.2224Q62.5413,172.41185,62.7964,172.78997Q63.0514,173.16809,63.0514,173.73791L63.0514,175.82324Q63.0514,176.2254,63.1019,176.4806Q63.1524,176.7357,63.2472,176.9249L63.2472,177L61.9344,177Q61.8407,176.8008,61.794,176.5017Q61.7472,176.2025,61.7472,175.90043ZM61.919,174.02793L61.928,174.76656L61.2012,174.76656Q60.9428,174.76656,60.7534,174.82445Q60.5641,174.88234,60.4435,174.98742Q60.3229,175.09242,60.2649,175.23243Q60.2071,175.37244,60.2071,175.53977Q60.2071,175.70549,60.2847,175.83831Q60.3625,175.97114,60.5064,176.0465Q60.6503,176.1218,60.8438,176.1218Q61.1384,176.1218,61.3535,176.0038Q61.5685,175.88578,61.6886,175.71556Q61.8088,175.54527,61.8131,175.3916L62.1539,175.9424Q62.0827,176.1257,61.9597,176.325Q61.8368,176.5243,61.6474,176.6972Q61.458,176.8702,61.1906,176.9802Q60.9233,177.0901,60.5602,177.0901Q60.095,177.0901,59.7201,176.9025Q59.3452,176.7147,59.1264,176.3849Q58.9075,176.0551,58.9075,175.63112Q58.9075,175.24814,59.0501,174.94995Q59.1926,174.65169,59.475,174.44654Q59.7574,174.24139,60.1813,174.13469Q60.6053,174.02793,61.1637,174.02793L61.919,174.02793ZM66.9344,175.9374L66.9344,170.07678L68.2401,170.07678L68.2401,177L67.0646,177L66.9344,175.9374ZM63.8486,174.61866L63.8486,174.52401Q63.8486,173.9682,63.9754,173.51071Q64.10210000000001,173.05322,64.3461,172.72264Q64.5901,172.39206,64.9454,172.21254Q65.30080000000001,172.03295,65.75630000000001,172.03295Q66.18549999999999,172.03295,66.50739999999999,172.21437Q66.8293,172.39572,67.0567,172.72595Q67.2842,173.05611,67.4239,173.50416Q67.56360000000001,173.95222,67.62989999999999,174.48394L67.62989999999999,174.69402Q67.565,175.20285,67.4246,175.63872Q67.2842,176.0745,67.0567,176.401Q66.8293,176.7274,66.5052,176.90879999999999Q66.181,177.0901,65.7473,177.0901Q65.2947,177.0901,64.9408,176.9053Q64.587,176.7205,64.3445,176.387Q64.10210000000001,176.05349999999999,63.9754,175.60203Q63.8486,175.15053,63.8486,174.61866ZM65.1481,174.52401L65.1481,174.61866Q65.1481,174.9227,65.1965,175.18468000000001Q65.2449,175.44667,65.3553,175.64584Q65.4657,175.84493,65.6435,175.95642Q65.82130000000001,176.0679,66.07679999999999,176.0679Q66.40899999999999,176.0679,66.6252,175.91656Q66.8415,175.76521,66.9565,175.49815Q67.0714,175.23102,67.09129999999999,174.88692L67.09129999999999,174.29541Q67.08,174.01391,67.0136,173.78481Q66.9474,173.55572,66.824,173.39303Q66.7007,173.23034,66.51740000000001,173.14203Q66.33420000000001,173.05371,66.0858,173.05371Q65.8318,173.05371,65.6534,173.16668Q65.47489999999999,173.27964,65.3629,173.47951Q65.251,173.67931,65.1995,173.94665Q65.1481,174.21392,65.1481,174.52401ZM71.4935,177.0901Q70.92609999999999,177.0901,70.4755,176.9075Q70.0249,176.7248,69.7113,176.4001Q69.39779999999999,176.0754,69.2324,175.64577Q69.06700000000001,175.21609,69.06700000000001,174.7267L69.06700000000001,174.54964999999999Q69.06700000000001,173.99433,69.2245,173.53395Q69.382,173.07357,69.67779999999999,172.73686Q69.97370000000001,172.40008,70.3965,172.21655Q70.8194,172.03295,71.3486,172.03295Q71.86840000000001,172.03295,72.2692,172.20409Q72.6699,172.37522,72.9423,172.68989Q73.2147,173.00449,73.3548,173.44402Q73.4949,173.88355,73.4949,174.42182L73.4949,174.96087L69.6208,174.96087L69.6208,174.09701L72.22120000000001,174.09701L72.22120000000001,173.99722Q72.2185,173.7277,72.12180000000001,173.51283Q72.0253,173.29795000000001,71.8323,173.17295000000001Q71.6394,173.04787,71.3395,173.04787Q71.07990000000001,173.04787,70.8945,173.15971Q70.7091,173.27154,70.5943,173.47388Q70.4795,173.67614,70.4245,173.9501Q70.36959999999999,174.22399000000001,70.36959999999999,174.54964999999999L70.36959999999999,174.7267Q70.36959999999999,175.02186,70.4512,175.26962Q70.5329,175.51738,70.6894,175.69683Q70.8459,175.87627,71.06819999999999,175.97649Q71.2907,176.07659999999998,71.5752,176.07659999999998Q71.92830000000001,176.07659999999998,72.23179999999999,175.93909Q72.5352,175.80155,72.756,175.52097L73.386,176.2062Q73.23429999999999,176.4267,72.971,176.6309Q72.70779999999999,176.835,72.3372,176.9626Q71.9665,177.0901,71.4935,177.0901ZM76.79480000000001,173.67502L76.79480000000001,174.69304L74.2501,174.69304L74.2501,173.67502L76.79480000000001,173.67502ZM79.2425,172.1231L79.2425,177L77.93979999999999,177L77.93979999999999,172.1231L79.2425,172.1231ZM77.8584,170.85394Q77.8584,170.56864,78.0572,170.38314Q78.256,170.19756,78.588,170.19756Q78.9185,170.19756,79.11869999999999,170.38314Q79.3189,170.56864,79.3189,170.85394Q79.3189,171.13635,79.11869999999999,171.32115Q78.9185,171.50595,78.588,171.50595Q78.256,171.50595,78.0572,171.32115Q77.8584,171.13635,77.8584,170.85394ZM81.5858,173.16428L81.5858,177L80.2877,177L80.2877,172.1231L81.5072,172.1231L81.5858,173.16428ZM81.3997,174.38893L81.04650000000001,174.39069Q81.048,173.85073,81.18610000000001,173.41564Q81.32419999999999,172.98047,81.57650000000001,172.67109Q81.8287,172.3617,82.1793,172.19733Q82.53,172.03295,82.95949999999999,172.03295Q83.3048,172.03295,83.5887,172.13141Q83.8726,172.22979,84.0777,172.44776Q84.2827,172.66573,84.39240000000001,173.01984Q84.5021,173.37394,84.5021,173.88982L84.5021,177L83.1965,177L83.1965,173.8839Q83.1965,173.56184,83.1052,173.38162Q83.0139,173.2014,82.8403,173.12759Q82.66669999999999,173.05371,82.4153,173.05371Q82.1563,173.05371,81.9642,173.15696Q81.7722,173.26013,81.6476,173.44268Q81.5231,173.62523,81.4614,173.867Q81.3997,174.10878,81.3997,174.38893ZM88.0495,173.67502L88.0495,174.69304L85.50489999999999,174.69304L85.50489999999999,173.67502L88.0495,173.67502ZM91.1428,176.0752Q91.3822,176.0752,91.5659,175.98255Q91.7497,175.88979,91.8554,175.72155Q91.9612,175.55322999999999,91.9654,175.32413L93.1892,175.32413Q93.1851,175.8362,92.9138,176.2356Q92.6426,176.6349,92.1869,176.8625Q91.7313,177.0901,91.1672,177.0901Q90.60210000000001,177.0901,90.18039999999999,176.9009Q89.75880000000001,176.7117,89.47829999999999,176.3752Q89.19800000000001,176.0386,89.0589,175.59154Q88.91980000000001,175.14447,88.91980000000001,174.62874L88.91980000000001,174.49746Q88.91980000000001,173.98173,89.0589,173.53311Q89.19800000000001,173.08449,89.47829999999999,172.74799Q89.75880000000001,172.41142,90.1789,172.22219Q90.59899999999999,172.03295,91.1611,172.03295Q91.758,172.03295,92.2121,172.2636Q92.6663,172.49417,92.9256,172.91906Q93.1851,173.34387,93.1892,173.92806L91.9654,173.92806Q91.9612,173.68107,91.865,173.48353Q91.769,173.28591,91.586,173.16689Q91.403,173.04787,91.1367,173.04787Q90.8543,173.04787,90.673,173.16682Q90.4918,173.28577,90.39269999999999,173.49156Q90.2936,173.69734,90.25569999999999,173.95574Q90.2179,174.21406,90.2179,174.49746L90.2179,174.62874Q90.2179,174.91516000000001,90.255,175.17581Q90.29220000000001,175.43639,90.39269999999999,175.63844Q90.49340000000001,175.84043,90.6747,175.95783Q90.85589999999999,176.0752,91.1428,176.0752ZM95.2038,170.07678L95.2038,177L93.9058,177L93.9058,170.07678L95.2038,170.07678ZM95.0177,174.38893L94.6646,174.39069Q94.666,173.88123,94.798,173.45071Q94.9301,173.02019,95.1731,172.70165Q95.4162,172.38304,95.7562,172.20803Q96.0961,172.03295,96.5103,172.03295Q96.8709,172.03295,97.1669,172.13444Q97.4631,172.23592,97.6773,172.46002Q97.8916,172.68404,98.0073,173.04273Q98.1232,173.40141,98.1232,173.91736L98.1232,177L96.8176,177L96.8176,173.90834Q96.8176,173.58318,96.7247,173.3969Q96.6319,173.21055,96.4583,173.13217Q96.2847,173.05371,96.0334,173.05371Q95.7529,173.05371,95.5578,173.15696Q95.3627,173.26013,95.2442,173.44268Q95.1258,173.62523,95.0718,173.867Q95.0177,174.10878,95.0177,174.38893ZM100.4764,172.1231L100.4764,177L99.1738,177L99.1738,172.1231L100.4764,172.1231ZM99.0923,170.85394Q99.0923,170.56864,99.2911,170.38314Q99.4899,170.19756,99.8219,170.19756Q100.1524,170.19756,100.3526,170.38314Q100.5528,170.56864,100.5528,170.85394Q100.5528,171.13635,100.3526,171.32115Q100.1524,171.50595,99.8219,171.50595Q99.4899,171.50595,99.2911,171.32115Q99.0923,171.13635,99.0923,170.85394ZM102.8197,173.16428L102.8197,177L101.5216,177L101.5216,172.1231L102.7411,172.1231L102.8197,173.16428ZM102.6336,174.38893L102.2804,174.39069Q102.2819,173.85073,102.42,173.41564Q102.5581,172.98047,102.8104,172.67109Q103.0626,172.3617,103.4132,172.19733Q103.7639,172.03295,104.1934,172.03295Q104.5387,172.03295,104.8226,172.13141Q105.1065,172.22979,105.3116,172.44776Q105.5167,172.66573,105.6263,173.01984Q105.736,173.37394,105.736,173.88982L105.736,177L104.4304,177L104.4304,173.8839Q104.4304,173.56184,104.3391,173.38162Q104.2479,173.2014,104.0742,173.12759Q103.9007,173.05371,103.6492,173.05371Q103.3902,173.05371,103.1981,173.15696Q103.0061,173.26013,102.8815,173.44268Q102.757,173.62523,102.6953,173.867Q102.6336,174.10878,102.6336,174.38893ZM109.3579,175.90043L109.3579,173.72889Q109.3579,173.49536,109.2811,173.32556Q109.2044,173.15576,109.0447,173.06146Q108.8851,172.96716,108.6326,172.96716Q108.4148,172.96716,108.256,173.04174Q108.0973,173.11632,108.0117,173.25246Q107.926,173.38852,107.926,173.57607L106.628,173.57607Q106.628,173.26274,106.7738,172.98293Q106.9198,172.70306,107.1927,172.48889Q107.4658,172.27472,107.8485,172.15387Q108.2313,172.03295,108.7035,172.03295Q109.269,172.03295,109.7105,172.2224Q110.152,172.41185,110.407,172.78997Q110.6621,173.16809,110.6621,173.73791L110.6621,175.82324Q110.6621,176.2254,110.7125,176.4806Q110.763,176.7357,110.8578,176.9249L110.8578,177L109.5451,177Q109.4514,176.8008,109.4046,176.5017Q109.3579,176.2025,109.3579,175.90043ZM109.5296,174.02793L109.5387,174.76656L108.8118,174.76656Q108.5535,174.76656,108.3641,174.82445Q108.1748,174.88234,108.0541,174.98742Q107.9336,175.09242,107.8756,175.23243Q107.8177,175.37244,107.8177,175.53977Q107.8177,175.70549,107.8954,175.83831Q107.9731,175.97114,108.117,176.0465Q108.261,176.1218,108.4545,176.1218Q108.749,176.1218,108.9641,176.0038Q109.1792,175.88578,109.2993,175.71556Q109.4194,175.54527,109.4238,175.3916L109.7646,175.9424Q109.6933,176.1257,109.5703,176.325Q109.4474,176.5243,109.2581,176.6972Q109.0687,176.8702,108.8013,176.9802Q108.5339,177.0901,108.1709,177.0901Q107.7057,177.0901,107.3307,176.9025Q106.9558,176.7147,106.737,176.3849Q106.5182,176.0551,106.5182,175.63112Q106.5182,175.24814,106.6607,174.94995Q106.8033,174.65169,107.0856,174.44654Q107.368,174.24139,107.792,174.13469Q108.216,174.02793,108.7743,174.02793L109.5296,174.02793ZM111.8084,176.5583Q111.8084,176.3464,111.9413,176.2Q112.0743,176.05349999999999,112.3267,176.05349999999999Q112.5791,176.05349999999999,112.7121,176.2Q112.845,176.3464,112.845,176.5583Q112.845,176.7656,112.7121,176.9099Q112.5791,177.0541,112.3267,177.0541Q112.0743,177.0541,111.9413,176.9099Q111.8084,176.7656,111.8084,176.5583ZM116.1016,176.6259Q116.4419,176.6259,116.7405,176.4963Q117.0391,176.3667,117.2363,176.1132Q117.4335,175.85965,117.4583,175.49005L117.9766,175.49005Q117.9541,175.95431,117.6938,176.316Q117.4335,176.6777,117.0165,176.8839Q116.5996,177.0901,116.1016,177.0901Q115.59,177.0901,115.2001,176.9042Q114.8102,176.7183,114.5488,176.387Q114.2874,176.0557,114.1544,175.61288Q114.0214,175.17003,114.0214,174.6562L114.0214,174.4669Q114.0214,173.95306,114.1544,173.51022Q114.2874,173.06738,114.5488,172.73609Q114.8102,172.4048,115.1978,172.21888Q115.5855,172.03295,116.0971,172.03295Q116.6199,172.03295,117.0357,172.24479Q117.4515,172.45664,117.7028,172.84539Q117.9541,173.23415,117.9766,173.76601L117.4583,173.76601Q117.4357,173.37162,117.2509,173.08879Q117.0661,172.80595,116.7653,172.65158Q116.4644,172.4972,116.0971,172.4972Q115.6824,172.4972,115.3883,172.65721Q115.0942,172.81722,114.9116,173.09555Q114.7291,173.37387,114.6446,173.72657Q114.5601,174.07927,114.5601,174.4669L114.5601,174.6562Q114.5601,175.04608,114.6434,175.39991Q114.7268,175.75373,114.9094,176.0298Q115.0919,176.3059,115.3872,176.4659Q115.6824,176.6259,116.1016,176.6259ZM118.7631,174.63592L118.7631,174.48943Q118.7631,173.95757,118.9175,173.50797Q119.0719,173.05836,119.357,172.7282Q119.6421,172.39804,120.0432,172.2155Q120.4444,172.03295,120.9357,172.03295Q121.4315,172.03295,121.8337,172.2155Q122.236,172.39804,122.5233,172.7282Q122.8107,173.05836,122.9639,173.50797Q123.1172,173.95757,123.1172,174.48943L123.1172,174.63592Q123.1172,175.16778,122.9639,175.61626Q122.8107,176.0647,122.5245,176.3949Q122.2383,176.7251,121.8382,176.9076Q121.4382,177.0901,120.9447,177.0901Q120.4489,177.0901,120.0477,176.9076Q119.6466,176.7251,119.3592,176.3949Q119.0719,176.0647,118.9175,175.61626Q118.7631,175.16778,118.7631,174.63592ZM119.3018,174.48943L119.3018,174.63592Q119.3018,175.03707,119.4088,175.3954Q119.5159,175.75373,119.7243,176.0309Q119.9328,176.3081,120.2393,176.467Q120.5458,176.6259,120.9447,176.6259Q121.3391,176.6259,121.6433,176.467Q121.9475,176.3081,122.1549,176.0309Q122.3622,175.75373,122.4693,175.3954Q122.5763,175.03707,122.5763,174.63592L122.5763,174.48943Q122.5763,174.09504,122.4693,173.73784Q122.3622,173.38063,122.1526,173.10118Q121.943,172.82173,121.6377,172.65947Q121.3323,172.4972,120.9357,172.4972Q120.5413,172.4972,120.237,172.65947Q119.9328,172.82173,119.7232,173.10118Q119.5136,173.38063,119.4077,173.73784Q119.3018,174.09504,119.3018,174.48943ZM124.7466,173.13048L124.7466,177L124.2034,177L124.2034,172.1231L124.724,172.1231L124.7466,173.13048ZM124.6452,174.25956L124.386,174.12434Q124.4108,173.69389,124.5494,173.31528Q124.688,172.93667,124.9348,172.6482Q125.1815,172.35973,125.5297,172.19634Q125.8779,172.03295,126.3196,172.03295Q126.6757,172.03295,126.9653,172.12986Q127.255,172.22676,127.461,172.43297Q127.667,172.63918,127.779,172.96596Q127.89,173.29274,127.89,173.75249L127.89,177L127.352,177L127.352,173.77277Q127.352,173.28823,127.202,173.01329Q127.052,172.73834,126.7839,172.62115Q126.5157,172.50396,126.1641,172.50396Q125.7494,172.50396,125.4632,172.67186Q125.177,172.83976,124.999,173.10794Q124.8209,173.37613,124.7364,173.6815Q124.6519,173.98687,124.6452,174.25956ZM127.886,173.83587L127.523,173.84714Q127.548,173.49106,127.69,173.16541Q127.832,172.83976,128.079,172.58509Q128.325,172.33043,128.671,172.18169Q129.017,172.03295,129.44799999999998,172.03295Q129.829,172.03295,130.126,172.13549Q130.424,172.23803,130.62900000000002,172.45438Q130.834,172.67073,130.941,173.00878Q131.048,173.34683,131.048,173.8201L131.048,177L130.507,177L130.507,173.81559Q130.507,173.2995,130.357,173.01442Q130.207,172.72933,129.94,172.61552Q129.673,172.50171,129.31900000000002,172.50396Q128.965,172.50622,128.701,172.6313Q128.436,172.75637,128.25799999999998,172.95582Q128.07999999999998,173.15527,127.987,173.38627Q127.895,173.61727,127.886,173.83587Z" fill="#FFFFFF" fill-opacity="1"/></g><g transform="matrix(0,1,-1,0,161,103)"><path d="M34.06599,137.13081L30.4313,147L29.508206,147L33.47463,136.49978L34.12008,136.49978L34.06599,137.13081ZM37.36895,147L33.73065,137.13081L33.680170000000004,136.49978L34.32201,136.49978L38.29565,147L37.36895,147ZM36.7235,143.2932L36.7235,144.0576L31.14526,144.0576L31.14526,143.2932L36.7235,143.2932ZM42.4388,136.49978L42.4388,147L41.5589,147L41.5589,136.49978L42.4388,136.49978ZM46.037400000000005,136.49978L46.037400000000005,137.26422L37.96391,137.26422L37.96391,136.49978L46.037400000000005,136.49978Z" fill="#FFFFFF" fill-opacity="1"/></g><g transform="matrix(0,1,-1,0,185,129)"><rect x="28.461548000574112" y="157.4615480005741" width="141.07690399885178" height="17.076903998851776" rx="1.3846440017223358" fill-opacity="0" stroke-opacity="1" stroke="#FFFFFF" fill="none" stroke-width="0.9230960011482239"/></g><g><path d="M10,297.1538L10,280L28,280L28,297.1538C28,298.1734,27.1734,299,26.1538,299L11.84619,299C10.826567,299,10,298.1734,10,297.1538ZM15.73365,288.09741Q15.73365,288.45596,15.79487,288.80924Q15.85609,289.16252,15.97674,289.50016Q16.09738,289.83781,16.2739,290.1499Q16.45043,290.462,16.67765,290.7393L16.53025,290.8902Q16.45949,290.8607,16.38511,290.842Q16.31073,290.8233,16.23438,290.8159Q16.15803,290.8085,16.08142,290.8124Q16.0048,290.8164,15.92964,290.8317Q15.85447,290.8469,15.78243,290.8732Q15.71038,290.8994,15.64306,290.9361Q15.57575,290.9727,15.51466,291.0189Q15.45357,291.0651,15.400079999999999,291.1199L13.643139999999999,292.9181Q13.50103,293.0635,13.42564,293.252Q13.350249999999999,293.4406,13.35305,293.6434Q13.35585,293.8463,13.43642,294.0327Q13.51699,294.219,13.66306,294.3605Q13.73539,294.4305,13.82005,294.4852Q13.904720000000001,294.5398,13.998470000000001,294.577Q14.09221,294.6141,14.19144,294.6324Q14.29067,294.6506,14.39157,294.6492Q14.49247,294.6478,14.59116,294.6269Q14.68984,294.6059,14.782530000000001,294.5662Q14.875219999999999,294.5264,14.95834,294.4695Q15.04146,294.4125,15.111830000000001,294.3405L16.868769999999998,292.5423Q17.01087,292.3968,17.08627,292.2083Q17.16166,292.0198,17.15886,291.8169Q17.15619,291.624,17.08295,291.4454L17.22888,291.2961Q17.50797,291.5293,17.82324,291.7108Q18.1385,291.8922,18.48043,292.0163Q18.82235,292.1404,19.1806,292.2034Q19.53885,292.2663,19.90259,292.2663Q20.0049,292.2663,20.1072,292.2613Q20.209400000000002,292.2563,20.3112,292.2463Q20.4131,292.2362,20.5143,292.2212Q20.6155,292.2062,20.715899999999998,292.1862Q20.8163,292.1663,20.915599999999998,292.1414Q21.0148,292.1165,21.1128,292.0868Q21.2107,292.0571,21.3071,292.0226Q21.403399999999998,291.9882,21.497999999999998,291.949Q21.5925,291.9098,21.685000000000002,291.8661Q21.7776,291.8223,21.867800000000003,291.7741Q21.9581,291.7258,22.0459,291.6732Q22.1336,291.6206,22.2187,291.5638Q22.303800000000003,291.5069,22.386,291.4459Q22.4682,291.385,22.5473,291.32Q22.6265,291.2551,22.7023,291.1864Q22.778100000000002,291.1177,22.8505,291.0453Q22.922800000000002,290.9729,22.9916,290.8971Q23.060299999999998,290.8213,23.1252,290.7422Q23.1902,290.663,23.2511,290.5808Q23.3121,290.4986,23.3689,290.4135Q23.425800000000002,290.3285,23.4784,290.2407Q23.531,290.1529,23.5793,290.0626Q23.627499999999998,289.97237,23.671300000000002,289.87986Q23.715,289.78734,23.7542,289.69279Q23.7934,289.59824,23.8278,289.50188Q23.862299999999998,289.40552,23.892,289.30758Q23.9217,289.20965,23.9466,289.11038Q23.9715,289.0111,23.9914,288.91073Q24.011400000000002,288.81034999999997,24.026400000000002,288.70912Q24.0414,288.60788,24.0515,288.50603Q24.061500000000002,288.40418999999997,24.066499999999998,288.30197Q24.0715,288.19975,24.0715,288.09741Q24.0715,287.99506,24.066499999999998,287.89285Q24.061500000000002,287.79063,24.0515,287.68878Q24.0414,287.58693,24.026400000000002,287.4857Q24.011400000000002,287.38446,23.9914,287.28409Q23.9715,287.18371,23.9466,287.08444Q23.9217,286.98516,23.892,286.88723Q23.862299999999998,286.78929,23.8278,286.69293Q23.7934,286.59657,23.7542,286.50202Q23.715,286.40747,23.671300000000002,286.31495Q23.627499999999998,286.22244,23.5793,286.13218Q23.531,286.04192,23.4784,285.95414Q23.425800000000002,285.86636,23.3689,285.78127Q23.3121,285.69617,23.2511,285.61397Q23.1902,285.53177,23.1252,285.45266Q23.060299999999998,285.37355,22.9916,285.29772Q22.922800000000002,285.22189,22.8505,285.14952Q22.778100000000002,285.07715,22.7023,285.00843Q22.6265,284.9397,22.5473,284.87477Q22.4682,284.80985,22.386,284.74888Q22.303800000000003,284.68792,22.2187,284.63106Q22.1336,284.5742,22.0459,284.52159Q21.9581,284.46897,21.867800000000003,284.42073Q21.7776,284.37249,21.685000000000002,284.32873Q21.5925,284.28497,21.497999999999998,284.24581Q21.403399999999998,284.20664,21.3071,284.17217Q21.2107,284.13769,21.1128,284.10798Q21.0148,284.07827,20.915599999999998,284.0534Q20.8163,284.02854,20.715899999999998,284.00857Q20.6155,283.98861,20.5143,283.97359Q20.4131,283.95857,20.3112,283.94854Q20.209400000000002,283.93851,20.1072,283.93349Q20.0049,283.92847,19.90259,283.92847Q19.80025,283.92847,19.69803,283.93349Q19.59581,283.93851,19.493969999999997,283.94854Q19.39212,283.95857,19.29088,283.97359Q19.18965,283.98861,19.08927,284.00857Q18.9889,284.02854,18.88962,284.0534Q18.79035,284.07827,18.692410000000002,284.10798Q18.59448,284.13769,18.49812,284.17217Q18.40176,284.20664,18.307209999999998,284.24581Q18.21266,284.28497,18.12014,284.32873Q18.02762,284.37249,17.93737,284.42073Q17.84711,284.46897,17.75933,284.52159Q17.67155,284.5742,17.58645,284.63106Q17.50136,284.68792,17.419159999999998,284.74888Q17.33696,284.80985,17.25784,284.87477Q17.17873,284.9397,17.102899999999998,285.00843Q17.027070000000002,285.07715,16.95471,285.14952Q16.88234,285.22189,16.81361,285.29772Q16.744880000000002,285.37355,16.67996,285.45266Q16.61503,285.53177,16.55407,285.61397Q16.4931,285.69617,16.436239999999998,285.78127Q16.37939,285.86636,16.32677,285.95414Q16.274160000000002,286.04192,16.22591,286.13218Q16.17767,286.22244,16.13391,286.31495Q16.09016,286.40747,16.05099,286.50202Q16.01183,286.59657,15.977350000000001,286.69293Q15.94287,286.78929,15.913170000000001,286.88723Q15.88346,286.98516,15.85859,287.08444Q15.83372,287.18371,15.81376,287.28409Q15.793790000000001,287.38446,15.77877,287.48569Q15.763760000000001,287.58693,15.753730000000001,287.68878Q15.7437,287.79063,15.738669999999999,287.89285Q15.73365,287.99506,15.73365,288.09741ZM22.3699,290.5647Q21.3479,291.5867,19.90259,291.5867Q18.4573,291.5867,17.43532,290.5647Q16.413339999999998,289.5427,16.413339999999998,288.09741Q16.413339999999998,286.65211,17.43532,285.63013Q18.4573,284.60815,19.90259,284.60815Q21.3479,284.60815,22.3699,285.63013Q23.3918,286.65211,23.3918,288.09741Q23.3918,289.5427,22.3699,290.5647Z" fill-rule="evenodd" fill="#FFFFFF" fill-opacity="1"/></g><g transform="matrix(0,1,-1,0,181,81)"><path d="M57.27299,143.4146Q57.27299,142.9819,57.13056,142.6448Q56.98813,142.3076,56.65819,142.0372Q56.32826,141.76670000000001,55.77656,141.5324Q55.22487,141.298,54.40634,141.0672Q53.61666,140.84364,52.98203,140.57681Q52.3474,140.30998,51.89848,139.96382Q51.44955,139.61766,51.21156,139.15431Q50.973578,138.69095,50.973578,138.06714Q50.973578,137.46136,51.2314,136.96376Q51.48921,136.46615,51.96158,136.10737Q52.43394,135.74859,53.079390000000004,135.55207Q53.72484,135.35555,54.50009,135.35555Q55.60348,135.35555,56.40939,135.77563Q57.21529,136.19571,57.65701,136.90606Q58.09873,137.61641,58.09873,138.49263L57.21169,138.49263Q57.21169,137.80752,56.89077,137.27206Q56.56985,136.73659,55.96587,136.42829Q55.36189,136.11999,54.50009,136.11999Q53.63469,136.11999,53.04694,136.38321Q52.45919,136.64644,52.1617,137.08455Q51.86422,137.52266,51.86422,138.05272Q51.86422,138.42773,52.00846,138.74324000000001Q52.15269,139.05875,52.47902,139.32739Q52.80535,139.59602,53.34803,139.8286Q53.89071,140.06118,54.68399,140.27392Q55.52055,140.50109,56.1678,140.78234Q56.815039999999996,141.0636,57.26217,141.4296Q57.70929,141.7956,57.94007,142.2788Q58.17084,142.762,58.17084,143.4002Q58.17084,144.042,57.90221,144.5505Q57.63357,145.0589,57.14678,145.4141Q56.65999,145.7692,56.00012,145.9567Q55.34025,146.1442,54.55779,146.1442Q53.85825,146.1442,53.16413,145.9639Q52.47,145.7836,51.89848,145.4032Q51.32695,145.0228,50.982592,144.426Q50.638234,143.8293,50.638234,142.9963L51.52527,142.9963Q51.52527,143.6598,51.7921,144.1159Q52.05894,144.5721,52.50246,144.8515Q52.94597,145.131,53.48325,145.2572Q54.02052,145.3834,54.55779,145.3834Q55.38352,145.3834,55.99291,145.1382Q56.6023,144.893,56.93764,144.4495Q57.27299,144.006,57.27299,143.4146ZM68.2884,140.19099L68.2884,141.3088Q68.2884,142.4122,68.0017,143.3046Q67.7151,144.1971,67.1796,144.8317Q66.64410000000001,145.4663,65.8923,145.8053Q65.1405,146.1442,64.2066,146.1442Q63.2907,146.1442,62.5371,145.8053Q61.783500000000004,145.4663,61.239000000000004,144.8317Q60.6945,144.1971,60.4006,143.3046Q60.106700000000004,142.4122,60.106700000000004,141.3088L60.106700000000004,140.19099Q60.106700000000004,139.08399,60.3988,138.19515Q60.6909,137.30631,61.2318,136.66988Q61.7726,136.03345,62.5245,135.6945Q63.2763,135.35555,64.1922,135.35555Q65.1261,135.35555,65.8779,135.6945Q66.6297,136.03345,67.17060000000001,136.66988Q67.7115,137.30631,67.9999,138.19515Q68.2884,139.08399,68.2884,140.19099ZM67.405,141.3088L67.405,140.17656Q67.405,139.24625,67.1904,138.50165Q66.9759,137.75704,66.5612,137.23059Q66.1465,136.70413,65.5498,136.42288Q64.953,136.14162,64.1922,136.14162Q63.4458,136.14162,62.8544,136.42288Q62.263,136.70413,61.8484,137.23059Q61.4337,137.75704,61.2137,138.50165Q60.9938,139.24625,60.9938,140.17656L60.9938,141.3088Q60.9938,142.2463,61.2155,142.9945Q61.4373,143.7427,61.8556,144.27100000000002Q62.2739,144.7993,62.867000000000004,145.0805Q63.4602,145.3618,64.2066,145.3618Q64.971,145.3618,65.5642,145.0805Q66.1574,144.7993,66.5684,144.27100000000002Q66.9795,143.7427,67.1922,142.9945Q67.405,142.2463,67.405,141.3088ZM77.31700000000001,135.49978L78.20400000000001,135.49978L78.20400000000001,142.6105Q78.20400000000001,143.7896,77.7064,144.5757Q77.2088,145.3618,76.3687,145.753Q75.52850000000001,146.1442,74.5081,146.1442Q73.4624,146.1442,72.6258,145.753Q71.7892,145.3618,71.3025,144.5757Q70.81569999999999,143.7896,70.81569999999999,142.6105L70.81569999999999,135.49978L71.6991,135.49978L71.6991,142.6105Q71.6991,143.5264,72.0615,144.1448Q72.4239,144.7632,73.0585,145.0733Q73.6931,145.3834,74.5081,145.3834Q75.3266,145.3834,75.9612,145.0733Q76.5958,144.7632,76.9564,144.1448Q77.31700000000001,143.5264,77.31700000000001,142.6105L77.31700000000001,135.49978ZM81.1135,135.49978L84.5247,135.49978Q85.6172,135.49978,86.4159,135.85496Q87.21459999999999,136.21013,87.65090000000001,136.89885Q88.0872,137.58757,88.0872,138.58999Q88.0872,139.33279,87.7753,139.93858Q87.46340000000001,140.54436,86.9135,140.95002Q86.36359999999999,141.3557,85.6425,141.5071L85.336,141.6261L81.69409999999999,141.6261L81.6796,140.86528L84.723,140.86528Q85.5487,140.86528,86.0968,140.54616Q86.6449,140.22704,86.9225,139.706Q87.2002,139.18496,87.2002,138.58999Q87.2002,137.87243,86.8937,137.35138Q86.5872,136.83034,85.98859999999999,136.54728Q85.39009999999999,136.26422,84.5247,136.26422L82.0042,136.26422L82.0042,146L81.1135,146L81.1135,135.49978ZM87.5932,146L84.878,141.3052L85.83,141.2944L88.5416,145.9062L88.5416,146L87.5932,146ZM97.5017,142.7223L98.3887,142.7223Q98.2805,143.786,97.8063,144.5523Q97.3322,145.3185,96.5082,145.7314Q95.68430000000001,146.1442,94.52680000000001,146.1442Q93.6326,146.1442,92.906,145.8053Q92.1794,145.4663,91.6584,144.8407Q91.13730000000001,144.2151,90.8579,143.3425Q90.5784,142.4699,90.5784,141.4062L90.5784,140.09723Q90.5784,139.0299,90.8579,138.15909Q91.13730000000001,137.28828,91.66380000000001,136.66086Q92.1902,136.03345,92.9294,135.6945Q93.6686,135.35555,94.5881,135.35555Q95.70949999999999,135.35555,96.5227,135.76301Q97.3358,136.17047,97.8082,136.93671Q98.2805,137.70295,98.3887,138.78471L97.5017,138.78471Q97.3971,137.93373,97.0527,137.34057Q96.7084,136.74741,96.10079999999999,136.4337Q95.4932,136.11999,94.5881,136.11999Q93.8561,136.11999,93.2774,136.40305Q92.6987,136.68611,92.29480000000001,137.20895Q91.89099999999999,137.7318,91.6782,138.46018Q91.46549999999999,139.18856,91.46549999999999,140.08281L91.46549999999999,141.4062Q91.46549999999999,142.268,91.66919999999999,142.9963Q91.8729,143.7247,92.2642,144.2584Q92.6554,144.792,93.2251,145.0877Q93.79480000000001,145.3834,94.52680000000001,145.3834Q95.4571,145.3834,96.07730000000001,145.0859Q96.6976,144.7884,97.0437,144.1953Q97.3899,143.6021,97.5017,142.7223ZM107.5219,145.2392L107.5219,146L101.6155,146L101.6155,145.2392L107.5219,145.2392ZM101.8823,135.49978L101.8823,146L100.99170000000001,146L100.99170000000001,135.49978L101.8823,135.49978ZM106.7863,140.20901L106.7863,140.96985L101.6155,140.96985L101.6155,140.20901L106.7863,140.20901ZM107.4858,135.49978L107.4858,136.26422L101.6155,136.26422L101.6155,135.49978L107.4858,135.49978Z" fill="#FFFFFF" fill-opacity="1"/></g></g><g transform="matrix(0,1,-1,0,113,19)" clip-path="url(#master_svg1_225_1968)"><g><path d="M47.207911,103.77886591796874C47.131846,103.87526591796875,47.0659229,103.98176591796874,47,104.08826591796876C48.89148,104.08826591796876,50.78296,104.08826591796876,52.67951,104.08316591796876C52.72008,104.01216591796876,52.75051,103.93606591796875,52.80122,103.87016591796875C58.714,96.29916591796875,64.6268,88.72306591796875,70.53960000000001,81.15216591796874C70.5903,81.09126591796876,70.646,81.03046591796875,70.7627,80.97466591796875L70.7627,103.70786591796875C70.7627,103.83466591796875,70.7677,103.96146591796875,70.7677,104.08826591796876L76.7465,104.08826591796876C76.8377,103.95636591796875,76.9239,103.82456591796876,77.02029999999999,103.69776591796875C80.6207,99.08826591796876,84.21600000000001,94.47866591796875,87.8164,89.86916591796876C87.87219999999999,89.79816591796875,87.928,89.73226591796875,88.0193,89.62066591796875C88.02940000000001,89.73726591796876,88.0446,89.79816591796875,88.0446,89.85906591796875L88.0446,103.98676591796874C88.0446,104.02226591796875,88.03960000000001,104.05276591796874,88.03960000000001,104.08826591796876L97.0051,104.08826591796876C97,103.97156591796875,96.9949,103.84986591796874,96.9949,103.73326591796875L96.9949,66.05577451796874C96.97460000000001,66.05577451796874,96.9594,66.05070351796876,96.9391,66.05070351796876C90.215,74.65617591796875,83.4959,83.26676591796875,76.78190000000001,91.87726591796874C76.75659999999999,91.86716591796875,76.7363,91.86206591796875,76.71600000000001,91.85196591796876L76.71600000000001,66.00506591796875C76.6197,66.12169891796874,76.5639,66.18255091796875,76.5132,66.24340291796875C75.1542,67.98782591796875,73.7901,69.72717591796875,72.431,71.47159591796876C64.0233,82.24236591796875,55.61562,93.00806591796875,47.207911,103.77886591796874ZM59.9412,97.19166591796875C58.146100000000004,99.48886591796875,56.34591,101.79106591796875,54.55078,104.08826591796876C56.457480000000004,104.08826591796876,58.3642,104.08826591796876,60.2709,104.08316591796876C60.3419,103.97666591796875,60.402699999999996,103.85496591796874,60.4838,103.75356591796876C63.343900000000005,100.09226591796875,66.2039,96.42596591796875,69.069,92.77486591796875C69.1806,92.62776591796874,69.2364,92.48076591796875,69.2364,92.29316591796875C69.2313,90.06186591796875,69.2313,87.83576591796876,69.2313,85.60956591796875L69.2313,85.30526591796875C69.1248,85.43206591796874,69.064,85.50816591796875,69.0031,85.58416591796875C65.9859,89.45336591796875,62.9636,93.32256591796875,59.9412,97.19166591796875Z" fill-rule="evenodd" fill="#FFFFFF" fill-opacity="1"/></g></g></g></svg>