<svg xmlns="http://www.w3.org/2000/svg" xmlns:xlink="http://www.w3.org/1999/xlink" fill="none" version="1.1" width="89.81586456298828" height="89.81768035888672" viewBox="0 0 89.81586456298828 89.81768035888672"><defs><linearGradient x1="0.5" y1="0" x2="0.5" y2="1" id="master_svg0_80_03898"><stop offset="7.857143133878708%" stop-color="#FF8C8C" stop-opacity="1"/><stop offset="100%" stop-color="#FFF4F4" stop-opacity="1"/></linearGradient><linearGradient x1="0.5" y1="0" x2="0.5" y2="0.5099531412124634" id="master_svg1_85_11635"><stop offset="0%" stop-color="#FFFFFF" stop-opacity="1"/><stop offset="100%" stop-color="#FFF2F0" stop-opacity="0"/></linearGradient></defs><g><path d="M89.4015,44.8628C89.1253,44.8321,88.8645,44.7861,88.5882,44.8168C88.266,44.8014,87.9591,44.7708,87.6368,44.7554C86.0256,44.6634,84.4297,44.4946,82.8184,44.2798C80.5627,43.9729,78.3376,43.574,76.1432,43.0217C72.7059,42.1625,69.376,40.9964,66.2148,39.37C60.1074,36.2401,55.243,31.7753,51.7136,25.8682C49.3657,21.9558,47.8005,17.7211,46.7263,13.3023C46.2967,11.5072,45.9591,9.69675,45.6829,7.87094C45.468,6.39801,45.2992,4.92509,45.1765,3.45217C45.1151,2.65433,45.0537,1.84116,44.9923,1.04332C45.0077,0.935922,45.0077,0.828521,44.9923,0.721119C44.9923,0.613718,44.9923,0.506318,44.9923,0.398916C44.9923,0.337545,44.9923,0.276171,44.9923,0.214801C44.9923,0.138086,45.023,0.0767148,44.977,0C44.9156,0.0613709,44.9463,0.138086,44.9463,0.199459C44.9463,0.26083,44.9463,0.322203,44.9463,0.383574C44.9309,0.490974,44.9003,0.598375,44.9309,0.690433C44.8696,0.966607,44.8696,1.24278,44.8849,1.51895C44.8849,1.56498,44.8696,1.59567,44.8696,1.6417C44.7468,3.34477,44.6087,5.04783,44.3785,6.73556C44.0716,9.06769,43.6573,11.3845,43.0895,13.6706C42.1995,17.2301,40.9719,20.667,39.2685,23.9197C35.6471,30.8547,30.3069,36.056,23.3095,39.5388C19.4731,41.4567,15.422,42.7148,11.2327,43.5587C9.60614,43.8809,7.96419,44.1417,6.3069,44.3412C4.97187,44.4946,3.65217,44.6173,2.31714,44.7247C1.82609,44.7554,1.33504,44.7401,0.859335,44.8321C0.797954,44.8014,0.736573,44.8168,0.675192,44.8321C0.567775,44.8014,0.460358,44.8321,0.368286,44.8475C0.306905,44.8475,0.245524,44.8475,0.184143,44.8475C0.107417,44.8475,0.0460358,44.8168,0,44.9088C0.0613811,44.9088,0.122762,44.9088,0.184143,44.9088C0.245524,44.9088,0.306905,44.9088,0.368286,44.9088C0.475703,44.9242,0.58312,44.9395,0.690537,44.9088C0.751918,44.9088,0.813299,44.9088,0.87468,44.9088C1.16624,44.9242,1.44246,44.9549,1.73402,44.9702C3.60614,45.0776,5.46292,45.2464,7.30435,45.5072C9.52941,45.8141,11.7238,46.213,13.8875,46.7653C17.3555,47.6399,20.7008,48.8213,23.8772,50.463C28.8031,53.0099,32.9616,56.4621,36.2609,60.9269C38.624,64.1336,40.3887,67.6318,41.7084,71.3755C42.5831,73.861,43.2583,76.4233,43.7647,79.0162C44.1023,80.7807,44.3632,82.5451,44.5627,84.3249C44.7161,85.6444,44.8082,86.9639,44.9003,88.2834C44.8696,88.6516,44.9156,89.0045,44.9616,89.3727C44.9463,89.4341,44.9463,89.4955,44.9616,89.5568C44.9463,89.6489,44.9463,89.7256,44.9923,89.8177C45.023,89.7103,45.023,89.6336,45.0077,89.5568C45.0077,89.4955,45.0077,89.4341,45.0077,89.3727C45.023,89.204,45.0384,89.0352,45.0077,88.8664C45.1151,87.0713,45.2532,85.2915,45.468,83.5117C45.7596,81.1336,46.1739,78.7707,46.7263,76.4386C47.601,72.833,48.798,69.3655,50.5013,66.0668C52.8184,61.5559,55.9028,57.6588,59.8772,54.4675C63.1458,51.8439,66.7826,49.88,70.711,48.407C73.3504,47.4097,76.0665,46.6733,78.844,46.1209C81.0077,45.6913,83.1867,45.3845,85.3964,45.1697C86.6394,45.0469,87.867,44.9702,89.11,44.8935C89.2174,44.8935,89.3248,44.8935,89.4322,44.8935C89.555,44.9242,89.6777,44.8935,89.8159,44.8935C89.8159,44.8782,89.8159,44.8628,89.8159,44.8475C89.6471,44.8782,89.5243,44.8321,89.4015,44.8628Z" fill="url(#master_svg0_80_03898)" fill-opacity="1"/><path d="M82.8184,44.2798C83.05,44.3107,83.2813,44.3406,83.5124,44.3695C84.8888,44.5415,86.2572,44.6766,87.6368,44.7554C87.9591,44.7708,88.266,44.8014,88.5882,44.8168C88.8148,44.7916,89.0311,44.8181,89.2539,44.8453L89.2716,44.8475C89.3146,44.8527,89.3579,44.858,89.4015,44.8628C89.4619,44.8477,89.5222,44.8512,89.588,44.855C89.6561,44.8588,89.73,44.8631,89.8159,44.8475L89.8159,44.8935C89.7686,44.8935,89.7232,44.8971,89.6789,44.9006C89.5938,44.9073,89.513,44.9137,89.4322,44.8935L89.11,44.8935C87.867,44.9702,86.6394,45.0469,85.3964,45.1697C84.7657,45.231,84.1375,45.2998,83.5114,45.3768C81.944,45.5697,80.3901,45.814,78.844,46.1209C76.0665,46.6733,73.3504,47.4097,70.711,48.407C66.7826,49.88,63.1458,51.8439,59.8772,54.4675C55.9028,57.6588,52.8184,61.5559,50.5013,66.0668C48.798,69.3655,47.601,72.833,46.7263,76.4386C46.176,78.7621,45.7627,81.1161,45.4713,83.4854L45.468,83.5117C45.2532,85.2915,45.1151,87.0713,45.0077,88.8664C45.0384,89.0352,45.023,89.204,45.0077,89.3727L45.0077,89.5568C45.023,89.6336,45.023,89.7103,44.9923,89.8177C44.9463,89.7256,44.9463,89.6489,44.9616,89.5568C44.9463,89.4955,44.9463,89.4341,44.9616,89.3727L44.9583,89.3464C44.9134,88.9876,44.8703,88.6428,44.9003,88.2834C44.8082,86.9639,44.7161,85.6444,44.5627,84.3249C44.5313,84.045,44.4984,83.7655,44.4639,83.4863C44.2792,81.9902,44.0492,80.5032,43.7647,79.0162C43.2583,76.4233,42.5831,73.861,41.7084,71.3755C40.3887,67.6318,38.624,64.1336,36.2609,60.9269C32.9616,56.4621,28.8031,53.0099,23.8772,50.463C20.7008,48.8213,17.3555,47.6399,13.8875,46.7653C11.7238,46.213,9.52941,45.8141,7.30435,45.5072C6.93389,45.4547,6.56282,45.406,6.19112,45.3607C4.71521,45.181,3.22951,45.056,1.73402,44.9702C1.44246,44.9549,1.16624,44.9242,0.87468,44.9088L0.690537,44.9088C0.583147,44.9395,0.475757,44.9242,0.368367,44.9089L0.368286,44.9088L0,44.9088C0.0364266,44.836,0.0824609,44.84,0.138103,44.8449C0.152781,44.8461,0.168128,44.8475,0.184143,44.8475L0.368286,44.8475C0.383796,44.8449,0.399741,44.8419,0.416048,44.8388C0.496547,44.8235,0.585869,44.8066,0.675192,44.8321C0.736573,44.8168,0.797954,44.8014,0.859335,44.8321C1.33504,44.7401,1.82609,44.7554,2.31714,44.7247C3.61461,44.6203,4.8976,44.5015,6.19426,44.354C6.2318,44.3498,6.26934,44.3455,6.3069,44.3412C7.96419,44.1417,9.60614,43.8809,11.2327,43.5587C15.422,42.7148,19.4731,41.4567,23.3095,39.5388C30.3069,36.056,35.6471,30.8547,39.2685,23.9197C40.9719,20.667,42.1995,17.2301,43.0895,13.6706C43.6573,11.3845,44.0716,9.06769,44.3785,6.73556C44.4034,6.55297,44.4272,6.3702,44.4501,6.18727C44.6384,4.67933,44.7601,3.16052,44.8696,1.6417C44.8696,1.59567,44.8849,1.56498,44.8849,1.51895C44.8696,1.24278,44.8696,0.966607,44.9309,0.690433C44.9066,0.617446,44.9209,0.534815,44.9355,0.450186C44.9393,0.428073,44.9431,0.405823,44.9463,0.383574L44.9463,0.199459C44.9463,0.184568,44.9445,0.168773,44.9426,0.152514C44.9368,0.10176,44.9305,0.0464796,44.977,0C45.0095,0.0542282,45.0037,0.100789,44.9975,0.150523L44.9975,0.150532C44.995,0.171152,44.9923,0.192317,44.9923,0.214801L44.9923,0.721119C45.0077,0.828521,45.0077,0.935922,44.9923,1.04332C45.0537,1.84116,45.1151,2.65433,45.1765,3.45217C45.2524,4.36325,45.346,5.27432,45.4571,6.1854C45.5257,6.74725,45.6009,7.30909,45.6829,7.87094C45.9591,9.69675,46.2967,11.5072,46.7263,13.3023C47.8005,17.7211,49.3657,21.9558,51.7136,25.8682C55.243,31.7753,60.1074,36.2401,66.2148,39.37C69.376,40.9964,72.7059,42.1625,76.1432,43.0217C78.3376,43.574,80.5627,43.9729,82.8184,44.2798ZM75.8991,43.9914Q77.8678,44.4869,80.0922,44.8717Q79.3617,44.9986,78.6489,45.1401Q74.1711,46.0306,70.3599,47.4707Q64.0481,49.8373,59.2511,53.6878Q53.2682,58.4919,49.6127,65.608Q47.1835,70.3126,45.7533,76.2081Q45.3065,78.0944,44.9683,80.0483Q44.8623,79.4315,44.7462,78.8246Q43.9434,74.7139,42.6516,71.043Q40.5365,65.0431,37.0651,60.3326Q32.0707,53.5737,24.3364,49.5746Q19.7808,47.2202,14.1348,45.7964Q12.0523,45.2648,9.68221,44.861Q10.5589,44.7116,11.4302,44.539Q18.3201,43.1511,23.7551,40.434Q34.5887,35.0418,40.1544,24.3836Q42.6179,19.6793,44.06,13.9116Q44.5692,11.8616,44.9536,9.6219Q45.3105,11.6829,45.7546,13.5386Q47.5293,20.839,50.8551,26.3811Q56.2298,35.3765,65.7573,40.2593Q70.2828,42.5876,75.8991,43.9914Z" fill-rule="evenodd" fill="url(#master_svg1_85_11635)" fill-opacity="1"/></g></svg>