<svg xmlns="http://www.w3.org/2000/svg" xmlns:xlink="http://www.w3.org/1999/xlink" fill="none" version="1.1" width="40" height="40" viewBox="0 0 40 40"><g><g><path d="M26.3735,9.92484L35.0275,9.925C36.6692,9.925,38,11.23457,38,12.85L38,30.075C38,31.6904,36.6692,33,35.0275,33L4.97248,33C3.33082,33,2,31.6904,2,30.075L2,12.85C2,11.23457,3.33082,9.925,4.97248,9.925L6.84717,9.924900000000001C7.93773,9.92485,8.82178,9.04076,8.82178,7.9502C8.82178,6.87324,9.70879,6,10.80322,6L22.4175,6C23.5119,6,24.3989,6.87324,24.3989,7.9502C24.3989,9.04075,25.283,9.92482,26.3735,9.92484" fill-rule="evenodd" fill="#FFFFFF" fill-opacity="1"/></g><g><path d="M33.527,8.02848Q33.5994,8.172550000000001,33.7134,8.28656Q33.8274,8.40057,33.9715,8.47297L37.222,10.106480000000001Q37.2529,10.122,37.2826,10.1396Q37.3123,10.15721,37.3408,10.176829999999999Q37.3692,10.196439999999999,37.3962,10.21798Q37.4232,10.23951,37.4487,10.26285Q37.474199999999996,10.286200000000001,37.498,10.311250000000001Q37.5218,10.33629,37.5438,10.362919999999999Q37.565799999999996,10.38955,37.5859,10.417639999999999Q37.606,10.445730000000001,37.6242,10.47513Q37.6423,10.50454,37.6584,10.535129999999999Q37.6744,10.565719999999999,37.6883,10.597339999999999Q37.7022,10.628969999999999,37.7139,10.661480000000001Q37.7256,10.69398,37.7351,10.727219999999999Q37.7445,10.76046,37.751599999999996,10.794270000000001Q37.7587,10.82808,37.7635,10.862300000000001Q37.7682,10.896519999999999,37.7706,10.930990000000001Q37.772999999999996,10.96545,37.772999999999996,11Q37.772999999999996,11.03455,37.7706,11.06901Q37.7682,11.10348,37.7635,11.1377Q37.7587,11.17192,37.751599999999996,11.20573Q37.7445,11.23954,37.7351,11.27278Q37.7256,11.30602,37.7139,11.33852Q37.7022,11.37103,37.6883,11.40266Q37.6744,11.43428,37.6584,11.46487Q37.6423,11.49546,37.6242,11.52487Q37.606,11.55427,37.5859,11.58236Q37.565799999999996,11.61044,37.5438,11.63707Q37.5218,11.6637,37.498,11.68875Q37.474199999999996,11.7138,37.4487,11.73715Q37.4232,11.76049,37.3962,11.78202Q37.3692,11.80356,37.3408,11.82317Q37.3123,11.84279,37.2826,11.8604Q37.2529,11.878,37.222,11.89352L33.9715,13.527Q33.8274,13.5994,33.7134,13.7134Q33.5994,13.8274,33.527,13.9715L31.893520000000002,17.222Q31.878,17.2529,31.8604,17.282600000000002Q31.84279,17.3123,31.823169999999998,17.3408Q31.803559999999997,17.3692,31.78202,17.3962Q31.76049,17.4232,31.73715,17.448700000000002Q31.7138,17.4742,31.68875,17.497999999999998Q31.6637,17.5218,31.63707,17.543799999999997Q31.61044,17.5658,31.58236,17.585900000000002Q31.554270000000002,17.606,31.52487,17.624200000000002Q31.49546,17.6423,31.464869999999998,17.6584Q31.43428,17.6744,31.402659999999997,17.688299999999998Q31.371029999999998,17.702199999999998,31.338520000000003,17.713900000000002Q31.30602,17.7256,31.272779999999997,17.7351Q31.239539999999998,17.744500000000002,31.205730000000003,17.7516Q31.17192,17.758699999999997,31.137700000000002,17.7635Q31.103479999999998,17.7682,31.06901,17.7706Q31.03455,17.773,31,17.773Q30.96545,17.773,30.93099,17.7706Q30.89652,17.7682,30.8623,17.7635Q30.82808,17.758699999999997,30.79427,17.7516Q30.760460000000002,17.744500000000002,30.72722,17.7351Q30.69398,17.7256,30.66148,17.713900000000002Q30.62897,17.702199999999998,30.59734,17.688299999999998Q30.56572,17.6744,30.53513,17.6584Q30.50454,17.6423,30.47513,17.624200000000002Q30.44573,17.606,30.41764,17.585900000000002Q30.38955,17.5658,30.36292,17.543799999999997Q30.336289999999998,17.5218,30.31125,17.497999999999998Q30.2862,17.4742,30.26285,17.448700000000002Q30.23951,17.4232,30.21798,17.3962Q30.19644,17.3692,30.17683,17.3408Q30.15721,17.3123,30.1396,17.282600000000002Q30.122,17.2529,30.10648,17.222L28.47297,13.9715Q28.400570000000002,13.8275,28.28656,13.7134Q28.17255,13.5994,28.028480000000002,13.527L24.77799,11.89352Q24.74712,11.878,24.71739,11.8604Q24.68767,11.84279,24.65923,11.82317Q24.63079,11.80356,24.60377,11.78202Q24.57675,11.76049,24.55129,11.73715Q24.52582,11.7138,24.50202,11.68875Q24.47823,11.6637,24.456220000000002,11.63708Q24.43421,11.61045,24.41409,11.58236Q24.39397,11.55427,24.37584,11.52487Q24.3577,11.49546,24.341639999999998,11.46487Q24.32558,11.43428,24.31167,11.40266Q24.29776,11.37103,24.28606,11.33853Q24.27437,11.30602,24.26494,11.27278Q24.25552,11.23954,24.24841,11.20573Q24.2413,11.17192,24.23655,11.1377Q24.23179,11.10348,24.2294,11.06901Q24.22702,11.03455,24.22702,11Q24.22702,10.96545,24.2294,10.930990000000001Q24.23179,10.896519999999999,24.23655,10.862300000000001Q24.2413,10.82808,24.24841,10.794270000000001Q24.25552,10.76046,24.26494,10.727219999999999Q24.27437,10.69398,24.28606,10.661480000000001Q24.29776,10.628969999999999,24.31167,10.597339999999999Q24.32558,10.565719999999999,24.341639999999998,10.535129999999999Q24.3577,10.50454,24.37583,10.47513Q24.39397,10.445730000000001,24.41409,10.417639999999999Q24.43421,10.38955,24.456220000000002,10.362919999999999Q24.47823,10.33629,24.50202,10.311250000000001Q24.52582,10.286200000000001,24.55129,10.26285Q24.57675,10.23951,24.60377,10.21798Q24.63079,10.196439999999999,24.65923,10.176829999999999Q24.68767,10.15721,24.71739,10.1396Q24.74712,10.122,24.77799,10.106480000000001L28.028480000000002,8.47297Q28.17255,8.40057,28.28656,8.28656Q28.400570000000002,8.172550000000001,28.47297,8.02848L30.10648,4.77799Q30.122,4.74712,30.1396,4.71739Q30.15721,4.68767,30.17683,4.65923Q30.19644,4.63079,30.21798,4.60377Q30.23951,4.5767500000000005,30.26285,4.55129Q30.2862,4.5258199999999995,30.31125,4.50202Q30.336289999999998,4.47823,30.36292,4.45622Q30.38955,4.43421,30.41764,4.41409Q30.44573,4.3939699999999995,30.47513,4.37584Q30.50454,4.3576999999999995,30.53513,4.34164Q30.56572,4.32558,30.59734,4.3116699999999994Q30.62897,4.29776,30.66148,4.28606Q30.69398,4.27437,30.72722,4.26494Q30.760460000000002,4.25552,30.79427,4.24841Q30.82808,4.2413,30.8623,4.23655Q30.89652,4.23179,30.93099,4.2294Q30.96545,4.2270199999999996,31,4.2270199999999996Q31.03455,4.2270199999999996,31.06901,4.2294Q31.103479999999998,4.23179,31.137700000000002,4.23655Q31.17192,4.2413,31.205730000000003,4.24841Q31.239539999999998,4.25552,31.272779999999997,4.26494Q31.30602,4.27437,31.33853,4.28606Q31.371029999999998,4.29776,31.402659999999997,4.3116699999999994Q31.43428,4.32558,31.464869999999998,4.34164Q31.49546,4.3576999999999995,31.52487,4.37584Q31.554270000000002,4.3939699999999995,31.58236,4.41409Q31.61045,4.43421,31.63707,4.45622Q31.6637,4.47823,31.68875,4.50202Q31.7138,4.5258199999999995,31.73715,4.55129Q31.76049,4.5767500000000005,31.78202,4.60377Q31.803559999999997,4.63079,31.823169999999998,4.65923Q31.84279,4.68767,31.8604,4.71739Q31.878,4.74712,31.893520000000002,4.77799L33.527,8.02848Z" fill="#E64545" fill-opacity="1"/><path d="M34.420500000000004,7.57945L34.420500000000004,7.57945L37.671,9.21297Q38.134,9.44562,38.4258,9.87379Q38.772999999999996,10.38337,38.772999999999996,11Q38.772999999999996,11.61663,38.4258,12.12621Q38.134,12.55438,37.671,12.78703L34.420500000000004,14.4205L34.420500000000004,14.4205L32.78703,17.671Q32.55438,18.134,32.12621,18.425800000000002Q31.61663,18.773,31,18.773Q30.38337,18.773,29.87379,18.425800000000002Q29.445619999999998,18.134,29.21297,17.671L27.57945,14.4205L27.57945,14.4205L24.32896,12.78703Q23.866005,12.55438,23.574246,12.12621Q23.22702,11.61663,23.22702,11Q23.22702,10.38337,23.574246,9.87379Q23.866004,9.44562,24.32896,9.21297L27.57945,7.57945Q27.57945,7.57945,27.57945,7.57945L29.21297,4.32896Q29.445619999999998,3.866004,29.87379,3.574246Q30.38337,3.22702,31,3.22702Q31.61663,3.22702,32.12621,3.574246Q32.55438,3.866005,32.78703,4.32896L34.420500000000004,7.57945ZM32.63351,8.477509999999999L31,5.2270199999999996L31,5.2270199999999996L29.36649,8.47752Q29.06916,9.06916,28.47751,9.366489999999999L25.22702,11L25.22702,11L28.47752,12.63351Q29.06916,12.93084,29.36649,13.5225L31,16.773L31,16.773L32.63351,13.5225Q32.93084,12.93084,33.5225,12.63351L36.772999999999996,11L36.772999999999996,11L33.5225,9.366489999999999Q32.93084,9.06916,32.63351,8.477509999999999Z" fill="#FFFFFF" fill-opacity="1"/></g><g transform="matrix(0,-1,1,0,0,42)"><path d="M21,23.38511C21,24.702370000000002,22.01599,25.770220000000002,23.269280000000002,25.770220000000002C23.76688,25.770220000000002,24.25068,25.598309999999998,24.64621,25.28097L25.40384,25.80621C25.54083,25.90118,25.72863,25.84045,25.76892,25.6787Q26.21833,23.87429,25.79373,22.6975C25.615389999999998,22.32262,25.22359,21.602568,24.17336,21.197457C23.88806,21.06721,23.58033,21,23.269280000000002,21C22.01599,21,21,22.06785,21,23.38511Z" fill-rule="evenodd" fill="#E64545" fill-opacity="1"/></g><g transform="matrix(0,-1,-1,0,35,35)"><path d="M14,23.38511C14,24.702370000000002,15.01599,25.770220000000002,16.269280000000002,25.770220000000002C16.76688,25.770220000000002,17.25068,25.598309999999998,17.64621,25.28097L18.38816,25.79534C18.53284,25.89564,18.73417,25.82025,18.77619,25.6493Q19.21486,23.86469,18.79373,22.6975C18.615389999999998,22.32262,18.22359,21.602568,17.17336,21.197457C16.88806,21.06721,16.58033,21,16.269280000000002,21C15.01599,21,14,22.06785,14,23.38511Z" fill-rule="evenodd" fill="#E64545" fill-opacity="1"/></g><g><path d="" fill="#E64545" fill-opacity="1"/><path d="M14.08976,25.24342Q13,24.649008,13,24Q13,23.9015086,12.980785000000001,23.80491Q12.96157,23.708311,12.923879,23.617317Q12.886188,23.526322,12.83147,23.44443Q12.776751,23.362537,12.707107,23.292893Q12.637463,23.223249,12.55557,23.16853Q12.473678,23.113812,12.382683,23.076121Q12.291689,23.038429999999998,12.19509,23.019215Q12.0984914,23,12,23Q11.9015086,23,11.80491,23.019215Q11.708311,23.038429999999998,11.617317,23.076121Q11.526322,23.113812,11.44443,23.16853Q11.362537,23.223249,11.292893,23.292893Q11.223249,23.362537,11.16853,23.44443Q11.113812,23.526322,11.076121,23.617317Q11.03843,23.708311,11.019214999999999,23.80491Q11,23.9015086,11,24Q11,25.83627,13.13206,26.99922Q14.96683,28,17.5,28Q20.03317,28,21.86794,26.99922Q24,25.83627,24,24Q24,23.9015086,23.980800000000002,23.80491Q23.9616,23.708311,23.9239,23.617317Q23.886200000000002,23.526322,23.8315,23.44443Q23.776699999999998,23.362537,23.7071,23.292893Q23.6375,23.223249,23.5556,23.16853Q23.4737,23.113812,23.3827,23.076121Q23.2917,23.038429999999998,23.1951,23.019215Q23.0985,23,23,23Q22.9015,23,22.8049,23.019215Q22.7083,23.038429999999998,22.6173,23.076121Q22.5263,23.113812,22.4444,23.16853Q22.3625,23.223249,22.2929,23.292893Q22.2232,23.362537,22.1685,23.44443Q22.113799999999998,23.526322,22.0761,23.617317Q22.0384,23.708311,22.019199999999998,23.80491Q22,23.9015086,22,24Q22,24.649008,20.91023,25.24343Q19.52318,26,17.5,26Q15.47682,26,14.08976,25.24342Z" fill-rule="evenodd" fill="#E64545" fill-opacity="1"/></g></g></svg>