<svg xmlns="http://www.w3.org/2000/svg" xmlns:xlink="http://www.w3.org/1999/xlink" fill="none" version="1.1" width="49.44245910644531" height="49.3276252746582" viewBox="0 0 49.44245910644531 49.3276252746582"><defs><linearGradient x1="0.5" y1="0" x2="0.5" y2="1" id="master_svg0_80_03382"><stop offset="7.857143133878708%" stop-color="#FFE7E7" stop-opacity="1"/><stop offset="100%" stop-color="#FFF3F3" stop-opacity="1"/></linearGradient></defs><g><path d="M0.18415,24.6408C0.245532,24.6408,0.306912,24.6408,0.368294,24.6561C0.598473,24.7022,0.843997,24.7175,1.07418,24.7022C2.70077,24.8403,4.32737,25.0244,5.92328,25.3466C7.94886,25.7608,9.9284,26.3439,11.8159,27.2031C16.0819,29.1363,19.335,32.1435,21.4834,36.3168C22.9412,39.1399,23.7391,42.1471,24.1995,45.2771C24.3529,46.2897,24.4297,47.3177,24.5217,48.3457C24.5064,48.407,24.5064,48.4684,24.5217,48.5298C24.5217,48.6525,24.5217,48.7753,24.5217,48.898C24.5064,49.0208,24.4911,49.1435,24.5831,49.3276C24.6445,49.0975,24.6445,48.9441,24.6292,48.7753C24.6292,48.6679,24.6292,48.5605,24.6292,48.4684C24.6445,48.407,24.6445,48.3457,24.6292,48.2843C24.7673,46.75,24.9207,45.2157,25.2123,43.7121C25.6113,41.5948,26.1944,39.5235,27.0691,37.5442C28.6189,34.0614,30.89,31.1769,34.0665,29.0289C36.5217,27.3565,39.2225,26.2978,42.0921,25.6074C44.0716,25.1318,46.0665,24.8709,48.0921,24.7175C48.2916,24.7329,48.4911,24.7329,48.6752,24.6715C48.7212,24.6715,48.7519,24.6715,48.798,24.6561C48.9054,24.6868,48.9974,24.6561,49.1049,24.6408C49.1662,24.6408,49.2276,24.6408,49.289,24.6408C49.335,24.6408,49.3964,24.6561,49.4425,24.6101C49.3964,24.5641,49.3504,24.5794,49.289,24.5794C49.2276,24.5794,49.1662,24.5794,49.1049,24.5794C48.9974,24.5794,48.89,24.5794,48.7826,24.5794C46.9719,24.472,45.1765,24.2726,43.3811,23.9197C41.2788,23.5054,39.2225,22.8917,37.2737,22.0018C32.9923,20.0533,29.7391,17,27.6061,12.796C26.1176,9.86552,25.3197,6.7509,24.89,3.51354C24.7826,2.70036,24.7212,1.87184,24.6292,1.04332C24.6445,0.951264,24.6445,0.874549,24.6292,0.782491C24.6292,0.705776,24.6292,0.613718,24.6292,0.537004C24.6445,0.352888,24.6445,0.168773,24.5678,0C24.5064,0.138087,24.5064,0.276173,24.5217,0.41426C24.5217,0.521661,24.5217,0.629061,24.5217,0.721119C24.5064,0.797834,24.4911,0.889892,24.5217,0.98195C24.5217,1.02798,24.5064,1.05866,24.5064,1.10469C24.3836,2.57762,24.2302,4.0352,23.954,5.49278C23.555,7.61011,22.9719,9.68141,22.0972,11.6607C20.1637,16.0334,17.1253,19.3475,12.8593,21.5415C10.0205,22.9991,6.9821,23.7969,3.83632,24.2419C2.77749,24.3953,1.70332,24.472,0.644501,24.5641C0.55243,24.5487,0.475704,24.5487,0.383632,24.5641C0.32225,24.5641,0.26087,24.5641,0.184143,24.5641C0.122762,24.5641,0.0613813,24.5641,0,24.5641C0,24.5794,0,24.5948,0,24.6101C0.0613883,24.6255,0.122769,24.6408,0.18415,24.6408Z" fill="url(#master_svg0_80_03382)" fill-opacity="1"/></g></svg>